<svg width="36" height="35" viewBox="0 0 36 35" fill="none" xmlns="http://www.w3.org/2000/svg">
<path fill-rule="evenodd" clip-rule="evenodd" d="M18 0C8.055 0 0 8.02933 0 17.9426C0 25.8823 5.1525 32.5883 12.3075 34.9657C13.2075 35.1227 13.545 34.5844 13.545 34.1134C13.545 33.6873 13.5225 32.2743 13.5225 30.7716C9 31.6015 7.83 29.6726 7.47 28.6634C7.2675 28.1475 6.39 26.5551 5.625 26.129C4.995 25.7925 4.095 24.9627 5.6025 24.9403C7.02 24.9178 8.0325 26.2411 8.37 26.7794C9.99 29.4932 12.5775 28.7307 13.6125 28.2597C13.77 27.0934 14.2425 26.3084 14.76 25.8598C10.755 25.4113 6.57 23.8637 6.57 17.0007C6.57 15.0494 7.2675 13.4346 8.415 12.1786C8.235 11.73 7.605 9.89088 8.595 7.42377C8.595 7.42377 10.1025 6.95277 13.545 9.26289C14.985 8.85918 16.515 8.65732 18.045 8.65732C19.575 8.65732 21.105 8.85918 22.545 9.26289C25.9875 6.93035 27.495 7.42377 27.495 7.42377C28.485 9.89088 27.855 11.73 27.675 12.1786C28.8225 13.4346 29.52 15.027 29.52 17.0007C29.52 23.8861 25.3125 25.4113 21.3075 25.8598C21.96 26.4205 22.5225 27.4971 22.5225 29.1792C22.5225 31.5791 22.5 33.5079 22.5 34.1134C22.5 34.5844 22.8375 35.1452 23.7375 34.9657C30.8475 32.5883 36 25.8598 36 17.9426C36 8.02933 27.945 0 18 0Z" fill="#1B1F23"/>
</svg>
