<svg width="86" height="72" viewBox="0 0 86 72" fill="none" xmlns="http://www.w3.org/2000/svg">
<path d="M85.4762 0.333332V12.5238C80.7778 13.7937 77.1905 15.5714 74.7143 17.8571C72.3016 20.1429 70.3651 23.0635 68.9048 26.6191C67.4444 30.1111 66.7143 34.3968 66.7143 39.4762C72.6825 39.4762 77.0952 41.1905 79.9524 44.619C82.873 48.0476 84.3333 51.6984 84.3333 55.5714C84.3333 60.0794 82.746 63.8889 79.5714 67C76.3968 70.1111 72.6825 71.6667 68.4286 71.6667C62.9048 71.6667 58.1746 69.3175 54.2381 64.6191C50.3016 59.8571 48.3333 53.381 48.3333 45.1905C48.3333 37.9524 49.8889 31.1905 53 24.9048C56.1111 18.5556 60.3651 13.1587 65.7619 8.71429C71.1587 4.20635 77.7302 1.4127 85.4762 0.333332ZM37.6667 0.333332V12.5238C32.9683 13.7937 29.381 15.5714 26.9048 17.8571C24.4921 20.1429 22.5556 23.0635 21.0952 26.6191C19.6349 30.1111 18.9048 34.3968 18.9048 39.4762C25 39.4762 29.4762 41.1905 32.3333 44.619C35.1905 48.0476 36.619 51.6984 36.619 55.5714C36.619 60.0794 35 63.8889 31.7619 67C28.5873 70.1111 24.9048 71.6667 20.7143 71.6667C15.254 71.6667 10.5238 69.3175 6.52381 64.6191C2.5873 59.8571 0.619048 53.381 0.619048 45.1905C0.619048 37.9524 2.1746 31.1905 5.28571 24.9048C8.39682 18.5556 12.619 13.1587 17.9524 8.71429C23.3492 4.20635 29.9206 1.4127 37.6667 0.333332Z" fill="#F1E8C7"/>
</svg>
