<svg width="138" height="24" viewBox="0 0 138 24" fill="none" xmlns="http://www.w3.org/2000/svg">
<path d="M19.8596 0.124512H17.0287V2.92714H19.8596V0.124512Z" fill="#FD8033"/>
<path d="M14.8003 11.8825C14.8003 16.6153 11.1563 18.9034 8.19438 18.9034C5.86158 18.9034 3.92192 17.4994 3.58092 16.1471V18.6434H0.75V0.260254H3.58092V7.48598C3.92398 6.34192 5.86158 4.88548 8.19438 4.88548C11.1563 4.8882 14.8003 7.22872 14.8003 11.8825ZM12.0476 11.8825C12.0476 8.89274 9.89869 7.38457 7.77516 7.38457C5.65163 7.38457 3.45262 8.86688 3.45262 11.8825C3.45262 14.9247 5.65437 16.407 7.77516 16.407C9.89595 16.407 12.0476 14.8989 12.0476 11.8825Z" fill="#333333"/>
<path d="M19.8596 5.12256H17.0287V18.6437H19.8596V5.12256Z" fill="#333333"/>
<path d="M26.6748 7.4629V15.0289C26.6748 15.7571 26.9369 16.3288 27.7726 16.3288C28.48 16.3288 28.9781 16.1988 29.5565 15.9654V18.3311C28.9795 18.6169 28.2193 18.7993 27.0398 18.7993C25.3362 18.7993 23.8418 18.1235 23.8418 15.133V7.4629H21.9564V5.12238H23.8439V1.9502H26.6748V5.12238H29.5565V7.4629H26.6748Z" fill="#333333"/>
<path d="M36.2427 7.15123C35.1943 7.15123 34.3819 7.74946 34.3819 8.6594C34.3819 9.38762 34.8533 9.95931 35.9545 10.3493L37.4488 10.8692C39.5985 11.6233 41.3542 12.4815 41.3542 14.8479C41.3542 17.5519 38.9165 18.9314 36.2687 18.9314C33.5929 18.9314 31.6553 17.5532 31.1311 15.2393L33.3857 14.5648C33.7788 15.7864 34.8265 16.6705 36.2673 16.6705C37.5024 16.6705 38.6001 15.9947 38.6001 14.901C38.6001 14.0693 37.971 13.5228 36.8162 13.107L35.2697 12.5625C32.7531 11.6778 31.6518 10.3261 31.6518 8.63626C31.6518 6.34815 33.6965 4.89307 36.1342 4.89307C38.4938 4.89307 40.1185 6.16711 40.8527 8.0918L38.4938 8.74243C38.0252 7.69706 37.265 7.15123 36.2427 7.15123Z" fill="#333333"/>
<path d="M61.746 11.91C61.746 16.6163 57.7878 18.9044 54.6948 18.9044C51.6018 18.9044 47.6401 16.6156 47.6401 11.91C47.6401 7.229 51.5983 4.88916 54.6913 4.88916C57.7844 4.88916 61.746 7.22832 61.746 11.91ZM50.3956 11.91C50.3956 14.8998 52.7023 16.408 54.6948 16.408C56.6873 16.408 58.994 14.8998 58.994 11.91C58.994 8.89302 56.6873 7.38553 54.6948 7.38553C52.7023 7.38553 50.3921 8.89234 50.3921 11.91H50.3956Z" fill="#333333"/>
<path d="M67.5092 4.34211V5.12205H71.0215V7.46257H67.5092V18.6438H64.6783V7.46257H63.0529V5.12205H64.6783V4.34211C64.6783 0.571688 67.326 0 69.0297 0C70.2359 0 71.3625 0.311706 72.2016 0.83235L71.206 2.78221C70.5508 2.49637 70.052 2.33984 69.3185 2.33984C67.982 2.33984 67.5092 3.17219 67.5092 4.34211Z" fill="#333333"/>
<path d="M90.4741 5.12182V18.6429C90.4741 22.7264 86.673 23.9998 83.8942 23.9998C82.0328 23.9998 80.6962 23.5581 79.9881 23.0898V20.7493C80.6962 21.2176 82.0067 21.6341 83.8942 21.6341C86.2798 21.6341 87.6425 20.36 87.6425 18.6436V16.1472C87.2994 17.4989 85.3625 18.9029 83.029 18.9029C80.067 18.9029 76.4231 16.6148 76.4231 11.8827C76.4231 7.22821 80.067 4.8877 83.029 4.8877C85.3618 4.8877 87.3021 6.34414 87.6425 7.4882V5.12182H90.4741ZM87.7742 11.8827C87.7742 8.86637 85.5718 7.38407 83.4516 7.38407C81.3315 7.38407 79.173 8.89223 79.173 11.8827C79.173 14.8984 81.3226 16.4072 83.4455 16.4072C85.5683 16.4072 87.7742 14.9249 87.7742 11.8827Z" fill="#333333"/>
<path d="M106.805 11.91C106.805 16.6163 102.847 18.9044 99.7534 18.9044C96.6597 18.9044 92.7022 16.6149 92.7022 11.91C92.7022 7.22968 96.6604 4.88916 99.7534 4.88916C102.846 4.88916 106.805 7.22832 106.805 11.91ZM95.4542 11.91C95.4542 14.8998 97.7609 16.4087 99.7534 16.4087C101.746 16.4087 104.053 14.8998 104.053 11.91C104.053 8.8937 101.746 7.38553 99.7534 7.38553C97.7609 7.38553 95.4542 8.89234 95.4542 11.91Z" fill="#333333"/>
<path d="M122.35 11.91C122.35 16.6163 118.392 18.9044 115.299 18.9044C112.206 18.9044 108.247 16.6149 108.247 11.91C108.247 7.22968 112.205 4.88916 115.299 4.88916C118.392 4.88916 122.35 7.22832 122.35 11.91ZM111 11.91C111 14.8998 113.306 16.4087 115.299 16.4087C117.291 16.4087 119.598 14.8998 119.598 11.91C119.598 8.8937 117.291 7.38553 115.299 7.38553C113.306 7.38553 111 8.89234 111 11.91Z" fill="#333333"/>
<path d="M137.973 0.259277V18.6431H135.142V16.1474C134.799 17.4991 132.862 18.9031 130.528 18.9031C127.566 18.9031 123.922 16.615 123.922 11.8829C123.922 7.22843 127.566 4.88791 130.528 4.88791C132.861 4.88791 134.801 6.34435 135.142 7.48841V0.259277H137.973ZM135.274 11.8829C135.274 8.86659 133.071 7.38428 130.948 7.38428C128.824 7.38428 126.675 8.89245 126.675 11.8829C126.675 14.8986 128.825 16.4074 130.948 16.4074C133.07 16.4074 135.274 14.9251 135.274 11.8829Z" fill="#333333"/>
</svg>
