<svg width="534" height="94" viewBox="0 0 534 94" fill="none" xmlns="http://www.w3.org/2000/svg">
<path d="M54.7038 46.5971C54.7038 65.1286 40.591 74.1257 29.032 74.1257C19.8923 74.1257 12.3655 68.62 11.0214 63.3829V73.1857H0V1.07428H11.0214V29.4086C12.3655 24.9771 19.8923 19.2029 29.032 19.2029C40.4566 19.2029 54.7038 28.3343 54.7038 46.5971ZM43.9512 46.5971C43.9512 34.9143 35.6179 29.0057 27.2847 29.0057C19.0858 29.0057 10.4838 34.78 10.4838 46.5971C10.4838 58.5486 19.0858 64.3229 27.2847 64.3229C35.6179 64.3229 43.9512 58.4143 43.9512 46.5971Z" fill="#333333"/>
<path d="M74.3271 0.53714H63.3057V11.5486H74.3271V0.53714Z" fill="#F89C44"/>
<path d="M74.3271 20.0086H63.3057V73.0514H74.3271V20.0086Z" fill="#333333"/>
<path d="M100.94 29.2743V58.9514C100.94 61.7714 102.015 64.0543 105.241 64.0543C107.929 64.0543 109.945 63.5171 112.23 62.5771V71.8429C109.945 72.9171 106.988 73.7229 102.419 73.7229C95.8327 73.7229 89.9188 71.0371 89.9188 59.3543V29.2743H82.5264V20.1429H89.9188V7.65428H100.94V20.1429H112.096V29.2743H100.94Z" fill="#333333"/>
<path d="M138.171 28.0657C134.138 28.0657 130.913 30.3486 130.913 33.9743C130.913 36.7943 132.794 39.0771 137.095 40.5543L142.875 42.5686C151.208 45.5228 158.063 48.88 158.063 58.1457C158.063 68.7543 148.52 74.1257 138.305 74.1257C127.956 74.1257 120.294 68.7543 118.278 59.6228L127.015 56.9371C128.493 61.7714 132.66 65.1286 138.171 65.1286C143.009 65.1286 147.31 62.4428 147.31 58.1457C147.31 54.9228 144.891 52.7743 140.321 51.1628L134.273 49.0143C124.461 45.5228 120.16 40.2857 120.16 33.5714C120.16 24.5743 128.09 18.9343 137.633 18.9343C146.773 18.9343 153.09 23.9029 156.047 31.4228L146.907 33.9743C145.025 30.2143 142.068 28.0657 138.171 28.0657Z" fill="#333333"/>
<path d="M237.364 46.7314C237.364 65.1286 221.907 74.1257 209.944 74.1257C197.982 74.1257 182.525 65.1286 182.525 46.7314C182.525 28.3343 197.982 19.2029 209.944 19.2029C221.907 19.2029 237.364 28.3343 237.364 46.7314ZM193.144 46.7314C193.144 58.4143 202.149 64.3229 209.81 64.3229C217.471 64.3229 226.477 58.4143 226.477 46.7314C226.477 34.9143 217.471 29.0057 209.81 29.0057C202.149 29.0057 193.144 34.9143 193.144 46.7314Z" fill="#333333"/>
<path d="M259.809 17.0543V20.1429H273.519V29.2743H259.809V73.0514H248.788V29.2743H242.471V20.1429H248.788V17.0543C248.788 2.28286 259.137 0 265.723 0C270.427 0 274.863 1.20857 278.089 3.22286L274.191 10.8771C271.637 9.80286 269.755 9.13143 266.798 9.13143C261.691 9.13143 259.809 12.4886 259.809 17.0543Z" fill="#333333"/>
<path d="M349.19 20.0086V73.0514C349.19 89.0314 334.405 94 323.518 94C316.26 94 311.018 92.2543 308.33 90.3743V81.2428C311.018 83.1228 316.126 84.7343 323.518 84.7343C332.792 84.7343 338.169 79.7657 338.169 73.0514V63.2486C336.825 68.4857 329.298 73.9914 320.158 73.9914C308.599 73.9914 294.486 64.9943 294.486 46.4628C294.486 28.2 308.599 19.0686 320.158 19.0686C329.298 19.0686 336.825 24.7086 338.169 29.2743V20.0086C338.169 20.0086 349.19 20.0086 349.19 20.0086ZM338.706 46.5971C338.706 34.78 330.104 29.0057 321.905 29.0057C313.707 29.0057 305.239 34.9143 305.239 46.5971C305.239 58.4143 313.572 64.3228 321.905 64.3228C330.239 64.3228 338.706 58.5486 338.706 46.5971Z" fill="#333333"/>
<path d="M412.765 46.7314C412.765 65.1286 397.308 74.1257 385.346 74.1257C373.384 74.1257 357.927 65.1286 357.927 46.7314C357.927 28.3343 373.384 19.2029 385.346 19.2029C397.308 19.2029 412.765 28.3343 412.765 46.7314ZM368.545 46.7314C368.545 58.4143 377.55 64.3229 385.211 64.3229C392.873 64.3229 401.878 58.4143 401.878 46.7314C401.878 34.9143 392.873 29.0057 385.211 29.0057C377.55 29.0057 368.545 34.9143 368.545 46.7314Z" fill="#333333"/>
<path d="M473.248 46.7314C473.248 65.1286 457.791 74.1257 445.829 74.1257C433.867 74.1257 418.41 65.1286 418.41 46.7314C418.41 28.3343 433.867 19.2029 445.829 19.2029C457.791 19.2029 473.248 28.3343 473.248 46.7314ZM429.028 46.7314C429.028 58.4143 438.033 64.3229 445.694 64.3229C453.356 64.3229 462.361 58.4143 462.361 46.7314C462.361 34.9143 453.356 29.0057 445.694 29.0057C438.033 29.0057 429.028 34.9143 429.028 46.7314Z" fill="#333333"/>
<path d="M534 1.07428V73.1857H522.979V63.3829C521.635 68.62 514.108 74.1257 504.968 74.1257C493.409 74.1257 479.296 65.1286 479.296 46.5971C479.296 28.3343 493.409 19.2029 504.968 19.2029C514.108 19.2029 521.635 24.8429 522.979 29.4086V1.07428H534ZM523.516 46.5971C523.516 34.78 514.914 29.0057 506.715 29.0057C498.517 29.0057 490.049 34.9143 490.049 46.5971C490.049 58.4143 498.382 64.3229 506.715 64.3229C514.914 64.3229 523.516 58.5486 523.516 46.5971Z" fill="#333333"/>
</svg>
