<svg width="710" height="576" viewBox="0 0 710 576" fill="none" xmlns="http://www.w3.org/2000/svg">
<path d="M671.923 262C651.153 262 634.538 278.615 634.538 299.385C634.538 320.154 651.153 336.769 671.923 336.769C692.692 336.769 709.307 320.154 709.307 299.385C709.307 278.615 692.692 262 671.923 262ZM671.923 328.462C655.723 328.462 642.846 315.585 642.846 299.385C642.846 283.185 655.723 270.308 671.923 270.308C688.123 270.308 701 283.185 701 299.385C701 315.585 688.123 328.462 671.923 328.462Z" fill="url(#paint0_linear)"/>
<path d="M671.923 386.615C661.123 386.615 651.57 391.185 644.508 398.662L573.477 321.4C578.046 315.169 580.539 307.692 580.539 299.385C580.539 278.615 563.923 262 543.154 262C522.385 262 505.77 278.615 505.77 299.385C505.77 320.154 522.385 336.769 543.154 336.769C552.708 336.769 561.016 333.031 567.662 327.631L639.523 405.308C636.616 410.708 634.539 417.354 634.539 424C634.539 444.769 651.154 461.385 671.923 461.385C692.693 461.385 709.308 444.769 709.308 424C709.308 403.231 692.693 386.615 671.923 386.615ZM543.154 328.462C526.954 328.462 514.077 315.585 514.077 299.385C514.077 283.185 526.954 270.308 543.154 270.308C559.354 270.308 572.231 283.185 572.231 299.385C572.231 315.585 559.354 328.462 543.154 328.462ZM671.923 453.077C655.723 453.077 642.846 440.2 642.846 424C642.846 407.8 655.723 394.923 671.923 394.923C688.123 394.923 701 407.8 701 424C701 440.2 688.123 453.077 671.923 453.077Z" fill="url(#paint1_linear)"/>
<path d="M543.154 461.385C563.923 461.385 580.539 444.769 580.539 424C580.539 403.231 563.923 386.615 543.154 386.615C522.385 386.615 505.77 403.231 505.77 424C505.77 444.769 522.385 461.385 543.154 461.385ZM543.154 394.923C559.354 394.923 572.231 407.8 572.231 424C572.231 440.2 559.354 453.077 543.154 453.077C526.954 453.077 514.077 440.2 514.077 424C514.077 407.8 526.954 394.923 543.154 394.923Z" fill="url(#paint2_linear)"/>
<path d="M324.385 574C345.154 574 361.769 557.385 361.769 536.615C361.769 515.846 345.154 499.231 324.385 499.231C303.615 499.231 287 515.846 287 536.615C287 557.385 303.615 574 324.385 574ZM324.385 507.538C340.585 507.538 353.462 520.415 353.462 536.615C353.462 552.815 340.585 565.692 324.385 565.692C308.185 565.692 295.308 552.815 295.308 536.615C295.308 520.415 308.185 507.538 324.385 507.538Z" fill="url(#paint3_linear)"/>
<path d="M581.923 501.231C562.815 501.231 547.031 515.769 544.954 534.462H490.123C488.046 515.769 472.262 501.231 453.154 501.231C439.862 501.231 428.231 508.292 421.585 518.677L346.815 443.908C355.954 437.262 361.769 426.046 361.769 414C361.769 394.892 347.231 379.108 328.538 377.031V326.354C347.231 324.277 361.769 308.492 361.769 289.385C361.769 268.615 345.154 252 324.385 252C303.615 252 287 268.615 287 289.385C287 308.492 301.538 324.277 320.231 326.354V376.615C301.538 378.692 287 394.477 287 413.585C287 434.354 303.615 450.969 324.385 450.969C329.785 450.969 334.769 449.723 339.338 448.062L417.846 526.569C416.6 530.308 415.769 534.462 415.769 538.615C415.769 559.385 432.385 576 453.154 576C472.262 576 488.046 561.462 490.123 542.769H544.538C546.615 561.462 562.4 576 581.508 576C602.277 576 618.892 559.385 618.892 538.615C618.892 517.846 602.692 501.231 581.923 501.231ZM295.308 289.385C295.308 273.185 308.185 260.308 324.385 260.308C340.585 260.308 353.462 273.185 353.462 289.385C353.462 305.585 340.585 318.462 324.385 318.462C308.185 318.462 295.308 305.585 295.308 289.385ZM295.308 414C295.308 397.8 308.185 384.923 324.385 384.923C340.585 384.923 353.462 397.8 353.462 414C353.462 430.2 340.585 443.077 324.385 443.077C308.185 443.077 295.308 430.2 295.308 414ZM453.154 567.692C436.954 567.692 424.077 554.815 424.077 538.615C424.077 522.415 436.954 509.538 453.154 509.538C469.354 509.538 482.231 522.415 482.231 538.615C482.231 554.815 469.354 567.692 453.154 567.692ZM581.923 567.692C565.723 567.692 552.846 554.815 552.846 538.615C552.846 522.415 565.723 509.538 581.923 509.538C598.123 509.538 611 522.415 611 538.615C611 554.815 598.123 567.692 581.923 567.692Z" fill="url(#paint4_linear)"/>
<path d="M71.846 48.9988C84.2334 48.9988 94.4186 39.7771 96.0702 27.8027H137.912L155.805 53.6785C156.493 54.642 157.456 55.0549 158.557 55.0549H259.996C261.785 55.0549 263.299 53.5409 263.299 51.7516C263.299 49.9623 261.785 48.4483 259.996 48.4483H160.209L142.316 22.5725C141.628 21.609 140.665 21.1961 139.564 21.1961H95.9326C94.2809 9.2217 84.0958 0 71.7084 0C58.22 0 47.209 11.011 47.209 24.4994C47.209 37.9879 58.3576 48.9988 71.846 48.9988ZM71.846 6.74423C81.6183 6.74423 89.6013 14.7272 89.6013 24.4994C89.6013 34.2717 81.6183 42.2546 71.846 42.2546C62.0738 42.2546 54.0908 34.2717 54.0908 24.4994C54.0908 14.7272 61.9362 6.74423 71.846 6.74423Z" fill="url(#paint5_linear)"/>
<path d="M259.996 86.7115H154.429C152.777 74.7371 142.592 65.5154 130.205 65.5154C116.716 65.5154 105.705 76.5264 105.705 90.0148C105.705 103.503 116.716 114.514 130.205 114.514C142.592 114.514 152.777 105.293 154.429 93.3181H259.996C261.786 93.3181 263.3 91.8041 263.3 90.0148C263.3 88.2255 261.786 86.7115 259.996 86.7115ZM130.205 107.908C120.432 107.908 112.449 99.9247 112.449 90.1524C112.449 80.3802 120.432 72.2596 130.205 72.2596C139.977 72.2596 147.96 80.2426 147.96 90.0148C147.96 99.9247 139.977 107.908 130.205 107.908Z" fill="url(#paint6_linear)"/>
<path d="M259.997 129.104H167.917C166.816 129.104 165.715 129.654 165.027 130.618L152.089 151.263H95.3826L81.3436 125.112C80.7931 124.011 79.692 123.323 78.4532 123.323H48.7236C47.0719 111.348 36.8868 102.127 24.4994 102.127C11.011 102.127 0 113.138 0 126.626C0 140.115 11.011 151.126 24.4994 151.126C36.8868 151.126 47.0719 141.904 48.7236 129.929H76.3887L90.4277 156.08C90.9782 157.182 92.0793 157.87 93.318 157.87H153.878C154.98 157.87 156.081 157.319 156.769 156.356L169.707 135.71H259.859C261.648 135.71 263.162 134.196 263.162 132.407C263.3 130.618 261.786 129.104 259.997 129.104ZM24.4994 144.657C14.7272 144.657 6.74423 136.674 6.74423 126.901C6.74423 117.129 14.7272 109.146 24.4994 109.146C34.2717 109.146 42.2546 117.129 42.2546 126.901C42.3923 136.674 34.4093 144.657 24.4994 144.657Z" fill="url(#paint7_linear)"/>
<path d="M259.997 168.055H206.869C205.631 168.055 204.53 168.743 203.979 169.707L188.288 196.408H108.184C106.532 184.434 96.3467 175.212 83.9594 175.212C70.4709 175.212 59.46 186.223 59.46 199.712C59.46 213.2 70.4709 224.211 83.9594 224.211C96.3467 224.211 106.532 214.989 108.184 203.015H190.215C191.454 203.015 192.555 202.327 193.106 201.363L208.796 174.662H259.997C261.787 174.662 263.301 173.148 263.301 171.358C263.301 169.569 261.787 168.055 259.997 168.055ZM83.9594 217.605C74.1871 217.605 66.2042 209.622 66.2042 199.849C66.2042 190.077 74.1871 182.094 83.9594 182.094C93.7316 182.094 101.715 190.077 101.715 199.849C101.852 209.622 93.8693 217.605 83.9594 217.605Z" fill="url(#paint8_linear)"/>
<defs>
<linearGradient id="paint0_linear" x1="671.923" y1="262" x2="671.923" y2="336.769" gradientUnits="userSpaceOnUse">
<stop stop-color="#FEA357"/>
<stop offset="0.34375" stop-color="#FF6157"/>
<stop offset="1" stop-color="#FF8988"/>
</linearGradient>
<linearGradient id="paint1_linear" x1="607.539" y1="262" x2="607.539" y2="461.385" gradientUnits="userSpaceOnUse">
<stop stop-color="#FEA357"/>
<stop offset="0.34375" stop-color="#FF6157"/>
<stop offset="1" stop-color="#FF8988"/>
</linearGradient>
<linearGradient id="paint2_linear" x1="543.154" y1="386.615" x2="543.154" y2="461.385" gradientUnits="userSpaceOnUse">
<stop stop-color="#FEA357"/>
<stop offset="0.34375" stop-color="#FF6157"/>
<stop offset="1" stop-color="#FF8988"/>
</linearGradient>
<linearGradient id="paint3_linear" x1="324.385" y1="499.231" x2="324.385" y2="574" gradientUnits="userSpaceOnUse">
<stop stop-color="#FEA357"/>
<stop offset="0.34375" stop-color="#FF6157"/>
<stop offset="1" stop-color="#FF8988"/>
</linearGradient>
<linearGradient id="paint4_linear" x1="452.946" y1="252" x2="452.946" y2="576" gradientUnits="userSpaceOnUse">
<stop stop-color="#FEA357"/>
<stop offset="0.34375" stop-color="#FF6157"/>
<stop offset="1" stop-color="#FF8988"/>
</linearGradient>
<linearGradient id="paint5_linear" x1="155.254" y1="0" x2="155.254" y2="55.0549" gradientUnits="userSpaceOnUse">
<stop stop-color="#FEA357"/>
<stop offset="0.34375" stop-color="#FF6157"/>
<stop offset="1" stop-color="#FF8988"/>
</linearGradient>
<linearGradient id="paint6_linear" x1="184.502" y1="65.5154" x2="184.502" y2="114.514" gradientUnits="userSpaceOnUse">
<stop stop-color="#FEA357"/>
<stop offset="0.34375" stop-color="#FF6157"/>
<stop offset="1" stop-color="#FF8988"/>
</linearGradient>
<linearGradient id="paint7_linear" x1="131.586" y1="102.127" x2="131.586" y2="157.87" gradientUnits="userSpaceOnUse">
<stop stop-color="#FEA357"/>
<stop offset="0.34375" stop-color="#FF6157"/>
<stop offset="1" stop-color="#FF8988"/>
</linearGradient>
<linearGradient id="paint8_linear" x1="161.38" y1="168.055" x2="161.38" y2="224.211" gradientUnits="userSpaceOnUse">
<stop stop-color="#FEA357"/>
<stop offset="0.34375" stop-color="#FF6157"/>
<stop offset="1" stop-color="#FF8988"/>
</linearGradient>
</defs>
</svg>
