<svg width="674" height="270" viewBox="0 0 674 270" fill="none" xmlns="http://www.w3.org/2000/svg">
<path d="M40.9121 177.037L204.992 205.856M204.992 205.856L148.749 38.987L317.012 100.343M204.992 205.856L317.012 100.343M317.012 100.343L474.12 197.489L635.41 90.5815M317.012 100.343L474.12 26.437" stroke="url(#paint0_linear)" stroke-width="4"/>
<circle cx="476.444" cy="192.841" r="77.1593" fill="url(#paint1_linear)"/>
<circle cx="150.609" cy="42.7056" r="42.2981" fill="url(#paint2_linear)"/>
<circle cx="208.246" cy="205.391" r="46.9463" fill="url(#paint3_linear)"/>
<circle cx="38.1236" cy="174.713" r="37.65" fill="url(#paint4_linear)"/>
<circle cx="635.876" cy="84.5389" r="37.65" fill="url(#paint5_linear)"/>
<circle cx="319.801" cy="98.4833" r="55.313" fill="url(#paint6_linear)"/>
<defs>
<linearGradient id="paint0_linear" x1="102.268" y1="-21.4389" x2="613.564" y2="196.094" gradientUnits="userSpaceOnUse">
<stop stop-color="#FCFF57"/>
<stop offset="1" stop-color="#FF5757"/>
</linearGradient>
<linearGradient id="paint1_linear" x1="527.319" y1="260.673" x2="319.582" y2="24.9557" gradientUnits="userSpaceOnUse">
<stop stop-color="#F38D6A"/>
<stop offset="1" stop-color="#F8CBBC"/>
</linearGradient>
<linearGradient id="paint2_linear" x1="178.498" y1="79.8907" x2="64.618" y2="-49.3278" gradientUnits="userSpaceOnUse">
<stop stop-color="#F38D6A"/>
<stop offset="1" stop-color="#F8CBBC"/>
</linearGradient>
<linearGradient id="paint3_linear" x1="235.67" y1="236.998" x2="152.004" y2="150.543" gradientUnits="userSpaceOnUse">
<stop stop-color="#F25C56"/>
<stop offset="1" stop-color="#FFB0AD"/>
</linearGradient>
<linearGradient id="paint4_linear" x1="75.7736" y1="199.348" x2="0.473632" y2="110.569" gradientUnits="userSpaceOnUse">
<stop stop-color="#FBCF5F"/>
<stop offset="1" stop-color="#FFEAB5"/>
</linearGradient>
<linearGradient id="paint5_linear" x1="677.639" y1="104.788" x2="593.163" y2="26.3238" gradientUnits="userSpaceOnUse">
<stop stop-color="#FEA357"/>
<stop offset="1" stop-color="#FFE5CF"/>
</linearGradient>
<linearGradient id="paint6_linear" x1="381.157" y1="128.231" x2="257.051" y2="12.9574" gradientUnits="userSpaceOnUse">
<stop stop-color="#FEA357"/>
<stop offset="1" stop-color="#FFE5CF"/>
</linearGradient>
</defs>
</svg>
