<svg width="187" height="454" viewBox="0 0 187 454" fill="none" xmlns="http://www.w3.org/2000/svg">
<rect width="19.8469" height="19.8469" transform="matrix(-1 0 0 1 186.864 237.989)" fill="#7A7A7A" fill-opacity="0.2"/>
<rect width="19.8469" height="19.8469" transform="matrix(-1 0 0 1 120.77 237.854)" fill="#7A7A7A" fill-opacity="0.2"/>
<rect width="19.8469" height="19.8469" transform="matrix(-1 0 0 1 153.885 203.911)" fill="#7A7A7A" fill-opacity="0.2"/>
<rect width="19.8469" height="19.8469" transform="matrix(-1 0 0 1 153.885 167.485)" fill="#7A7A7A" fill-opacity="0.2"/>
<rect width="19.8469" height="19.8469" transform="matrix(-1 0 0 1 187 138.509)" fill="#7A7A7A" fill-opacity="0.2"/>
<circle r="9.93444" transform="matrix(-1 0 0 1 143.951 247.788)" fill="#494949" fill-opacity="0.2"/>
<circle r="9.93444" transform="matrix(-1 0 0 1 110.836 148.443)" fill="#494949" fill-opacity="0.2"/>
<circle r="9.93444" transform="matrix(-1 0 0 1 145.606 148.443)" fill="#494949" fill-opacity="0.2"/>
<circle r="9.93444" transform="matrix(-1 0 0 1 177.065 213.845)" fill="#494949" fill-opacity="0.2"/>
<circle r="9.93444" transform="matrix(-1 0 0 1 110.836 213.845)" fill="#494949" fill-opacity="0.2"/>
<path d="M177.066 170.796L168.462 185.698H185.669L177.066 170.796Z" fill="#C4C4C4" fill-opacity="0.2"/>
<path d="M110.836 170.796L102.232 185.698H119.439L110.836 170.796Z" fill="#C4C4C4" fill-opacity="0.2"/>
<rect x="186.864" y="19.8469" width="19.8469" height="19.8469" transform="rotate(180 186.864 19.8469)" fill="#7A7A7A" fill-opacity="0.2"/>
<rect x="120.77" y="19.9825" width="19.8469" height="19.8469" transform="rotate(180 120.77 19.9825)" fill="#7A7A7A" fill-opacity="0.2"/>
<rect x="153.885" y="53.9254" width="19.8469" height="19.8469" transform="rotate(180 153.885 53.9254)" fill="#7A7A7A" fill-opacity="0.2"/>
<rect x="153.885" y="90.3516" width="19.8469" height="19.8469" transform="rotate(180 153.885 90.3516)" fill="#7A7A7A" fill-opacity="0.2"/>
<rect x="187" y="119.327" width="19.8469" height="19.8469" transform="rotate(180 187 119.327)" fill="#7A7A7A" fill-opacity="0.2"/>
<circle cx="143.951" cy="10.0482" r="9.93444" transform="rotate(180 143.951 10.0482)" fill="#494949" fill-opacity="0.2"/>
<circle cx="110.836" cy="109.393" r="9.93444" transform="rotate(180 110.836 109.393)" fill="#494949" fill-opacity="0.2"/>
<circle cx="145.606" cy="109.393" r="9.93444" transform="rotate(180 145.606 109.393)" fill="#494949" fill-opacity="0.2"/>
<circle cx="177.065" cy="43.9909" r="9.93444" transform="rotate(180 177.065 43.9909)" fill="#494949" fill-opacity="0.2"/>
<circle cx="110.836" cy="43.9909" r="9.93444" transform="rotate(180 110.836 43.9909)" fill="#494949" fill-opacity="0.2"/>
<path d="M177.066 87.0403L168.462 72.1387H185.669L177.066 87.0403Z" fill="#C4C4C4" fill-opacity="0.2"/>
<path d="M110.836 87.0403L102.232 72.1387H119.439L110.836 87.0403Z" fill="#C4C4C4" fill-opacity="0.2"/>
<rect width="19.8469" height="19.8469" transform="matrix(-1 0 0 1 85.9625 302.939)" fill="#7A7A7A" fill-opacity="0.2"/>
<rect width="19.8469" height="19.8469" transform="matrix(-1 0 0 1 19.8688 302.804)" fill="#7A7A7A" fill-opacity="0.2"/>
<rect width="19.8469" height="19.8469" transform="matrix(-1 0 0 1 52.9836 268.861)" fill="#7A7A7A" fill-opacity="0.2"/>
<rect width="19.8469" height="19.8469" transform="matrix(-1 0 0 1 52.9836 232.435)" fill="#7A7A7A" fill-opacity="0.2"/>
<rect width="19.8469" height="19.8469" transform="matrix(-1 0 0 1 86.0985 203.459)" fill="#7A7A7A" fill-opacity="0.2"/>
<circle r="9.93444" transform="matrix(-1 0 0 1 43.0492 312.738)" fill="#494949" fill-opacity="0.2"/>
<circle r="9.93444" transform="matrix(-1 0 0 1 9.93445 213.393)" fill="#494949" fill-opacity="0.2"/>
<circle r="9.93444" transform="matrix(-1 0 0 1 44.705 213.393)" fill="#494949" fill-opacity="0.2"/>
<circle r="9.93444" transform="matrix(-1 0 0 1 76.1641 278.795)" fill="#494949" fill-opacity="0.2"/>
<circle r="9.93444" transform="matrix(-1 0 0 1 9.93445 278.795)" fill="#494949" fill-opacity="0.2"/>
<path d="M76.1641 235.746L67.5606 250.647H84.7675L76.1641 235.746Z" fill="#C4C4C4" fill-opacity="0.2"/>
<path d="M9.93445 235.746L1.33098 250.647H18.5379L9.93445 235.746Z" fill="#C4C4C4" fill-opacity="0.2"/>
<rect width="19.8469" height="19.8469" transform="matrix(-1 0 0 1 183.671 368.448)" fill="#7A7A7A" fill-opacity="0.2"/>
<rect width="19.8469" height="19.8469" transform="matrix(-1 0 0 1 117.577 368.312)" fill="#7A7A7A" fill-opacity="0.2"/>
<rect width="19.8469" height="19.8469" transform="matrix(-1 0 0 1 150.692 334.37)" fill="#7A7A7A" fill-opacity="0.2"/>
<rect width="19.8469" height="19.8469" transform="matrix(-1 0 0 1 150.692 297.943)" fill="#7A7A7A" fill-opacity="0.2"/>
<rect width="19.8469" height="19.8469" transform="matrix(-1 0 0 1 183.807 268.968)" fill="#7A7A7A" fill-opacity="0.2"/>
<circle r="9.93444" transform="matrix(-1 0 0 1 140.757 378.247)" fill="#494949" fill-opacity="0.2"/>
<circle r="9.93444" transform="matrix(-1 0 0 1 107.643 278.902)" fill="#494949" fill-opacity="0.2"/>
<circle r="9.93444" transform="matrix(-1 0 0 1 142.413 278.902)" fill="#494949" fill-opacity="0.2"/>
<circle r="9.93444" transform="matrix(-1 0 0 1 173.872 344.304)" fill="#494949" fill-opacity="0.2"/>
<circle r="9.93444" transform="matrix(-1 0 0 1 107.643 344.304)" fill="#494949" fill-opacity="0.2"/>
<path d="M173.872 301.255L165.269 316.156H182.476L173.872 301.255Z" fill="#C4C4C4" fill-opacity="0.2"/>
<path d="M107.643 301.255L99.0391 316.156H116.246L107.643 301.255Z" fill="#C4C4C4" fill-opacity="0.2"/>
<rect x="85.9625" y="87.8472" width="19.8469" height="19.8469" transform="rotate(180 85.9625 87.8472)" fill="#7A7A7A" fill-opacity="0.2"/>
<rect x="19.8688" y="87.9828" width="19.8469" height="19.8469" transform="rotate(180 19.8688 87.9828)" fill="#7A7A7A" fill-opacity="0.2"/>
<rect x="52.9836" y="121.926" width="19.8469" height="19.8469" transform="rotate(180 52.9836 121.926)" fill="#7A7A7A" fill-opacity="0.2"/>
<rect x="52.9836" y="158.352" width="19.8469" height="19.8469" transform="rotate(180 52.9836 158.352)" fill="#7A7A7A" fill-opacity="0.2"/>
<rect x="86.0985" y="187.327" width="19.8469" height="19.8469" transform="rotate(180 86.0985 187.327)" fill="#7A7A7A" fill-opacity="0.2"/>
<circle cx="43.0492" cy="78.0485" r="9.93444" transform="rotate(180 43.0492 78.0485)" fill="#494949" fill-opacity="0.2"/>
<circle cx="9.93445" cy="177.393" r="9.93444" transform="rotate(180 9.93445 177.393)" fill="#494949" fill-opacity="0.2"/>
<circle cx="44.705" cy="177.393" r="9.93444" transform="rotate(180 44.705 177.393)" fill="#494949" fill-opacity="0.2"/>
<circle cx="76.1641" cy="111.991" r="9.93444" transform="rotate(180 76.1641 111.991)" fill="#494949" fill-opacity="0.2"/>
<circle cx="9.93445" cy="111.991" r="9.93444" transform="rotate(180 9.93445 111.991)" fill="#494949" fill-opacity="0.2"/>
<path d="M76.1641 155.041L67.5606 140.139H84.7675L76.1641 155.041Z" fill="#C4C4C4" fill-opacity="0.2"/>
<path d="M9.93445 155.041L1.33098 140.139H18.5379L9.93445 155.041Z" fill="#C4C4C4" fill-opacity="0.2"/>
<rect x="85.9625" y="354.324" width="19.8469" height="19.8469" transform="rotate(180 85.9625 354.324)" fill="#7A7A7A" fill-opacity="0.2"/>
<rect x="19.8688" y="354.459" width="19.8469" height="19.8469" transform="rotate(180 19.8688 354.459)" fill="#7A7A7A" fill-opacity="0.2"/>
<rect x="52.9836" y="388.402" width="19.8469" height="19.8469" transform="rotate(180 52.9836 388.402)" fill="#7A7A7A" fill-opacity="0.2"/>
<rect x="52.9836" y="424.828" width="19.8469" height="19.8469" transform="rotate(180 52.9836 424.828)" fill="#7A7A7A" fill-opacity="0.2"/>
<rect x="86.0985" y="453.804" width="19.8469" height="19.8469" transform="rotate(180 86.0985 453.804)" fill="#7A7A7A" fill-opacity="0.2"/>
<circle cx="43.0492" cy="344.525" r="9.93444" transform="rotate(180 43.0492 344.525)" fill="#494949" fill-opacity="0.2"/>
<circle cx="9.93445" cy="443.87" r="9.93444" transform="rotate(180 9.93445 443.87)" fill="#494949" fill-opacity="0.2"/>
<circle cx="44.705" cy="443.87" r="9.93444" transform="rotate(180 44.705 443.87)" fill="#494949" fill-opacity="0.2"/>
<circle cx="76.1641" cy="378.468" r="9.93444" transform="rotate(180 76.1641 378.468)" fill="#494949" fill-opacity="0.2"/>
<circle cx="9.93445" cy="378.468" r="9.93444" transform="rotate(180 9.93445 378.468)" fill="#494949" fill-opacity="0.2"/>
<path d="M76.1641 421.517L67.5606 406.615H84.7675L76.1641 421.517Z" fill="#C4C4C4" fill-opacity="0.2"/>
<path d="M9.93445 421.517L1.33098 406.615H18.5379L9.93445 421.517Z" fill="#C4C4C4" fill-opacity="0.2"/>
</svg>
