<svg width="271" height="24" viewBox="0 0 271 24" fill="none" xmlns="http://www.w3.org/2000/svg">
<path d="M47.3689 11.9946C47.37 13.7298 46.7355 15.4075 45.5813 16.7218C44.4271 18.0361 42.83 18.8993 41.0814 19.1541C40.9707 19.1674 40.8722 19.1793 40.7495 19.1912H40.7373C40.4917 19.215 40.2462 19.227 40.0006 19.227C38.9005 19.2298 37.8139 18.9896 36.8213 18.5242C35.8286 18.0588 34.9554 17.3802 34.2662 16.5385C33.6209 15.7677 33.1516 14.8698 32.89 13.9057C32.8625 13.8273 32.8422 13.7466 32.8293 13.6646C32.8171 13.617 32.805 13.568 32.7915 13.5203C32.7279 13.2302 32.6828 12.9365 32.6566 12.6409C32.6465 12.569 32.6425 12.4963 32.6444 12.4237C32.6323 12.2794 32.6323 12.1456 32.6323 11.9893C32.6323 11.7364 32.6444 11.4953 32.6687 11.2424C32.6809 11.1219 32.6944 11.0133 32.7065 10.8928C32.9612 9.27396 33.768 7.7879 34.995 6.67765C36.222 5.5674 37.7964 4.89867 39.4609 4.78084C39.5748 4.77089 39.6892 4.76692 39.8036 4.76892C39.8687 4.75864 39.9347 4.75465 40.0006 4.757C40.0748 4.757 40.1598 4.76892 40.2462 4.76892C41.111 4.79503 41.9639 4.97404 42.7639 5.29734C42.7639 5.30926 42.776 5.30926 42.7882 5.30926C42.9231 5.36886 43.0823 5.42978 43.2186 5.50129C44.5246 6.12563 45.6139 7.11425 46.3502 8.34337C47.0188 9.44813 47.3707 10.7097 47.3689 11.9946Z" fill="#ACABAB"/>
<path d="M46.5728 9.86511C46.2867 10.1724 45.8887 10.3366 45.6445 10.7167C45.4367 11.0438 45.0198 11.0266 44.6177 10.7485C44.2984 10.5395 44.0298 10.2642 43.8311 9.94192C43.6695 9.68532 43.4891 9.44055 43.2914 9.20955C43.271 9.17196 43.2364 9.1437 43.195 9.13083C43.1537 9.11796 43.1088 9.12149 43.0701 9.14069C42.9568 9.20293 43.0026 9.29431 43.0404 9.39496C43.2482 9.94722 43.5963 10.4306 43.8392 10.967C43.9174 11.1418 44.1239 11.2226 44.3222 11.2583C44.3951 11.2676 44.4733 11.2583 44.5475 11.2676C44.8093 11.3113 45.0751 11.3868 45.1534 11.6649C45.2249 11.9298 44.9712 12.1125 44.8268 12.2264C44.5071 12.482 44.2251 12.7761 43.9242 13.0475C43.7083 13.2436 43.7825 13.5256 43.8419 13.7428C43.9876 14.2792 43.8783 14.703 43.429 15.0394C43.3923 15.0609 43.3606 15.0899 43.3362 15.1244C43.3118 15.1589 43.2951 15.1981 43.2873 15.2394C43.2064 15.7598 42.7719 16.0856 42.5493 16.5147C42.2794 17.0445 41.8747 16.9902 41.4267 16.9902C41.3053 16.9902 41.2108 16.9743 41.196 16.818C41.121 16.1536 40.894 15.5143 40.5321 14.948C40.469 14.8355 40.4327 14.7105 40.4259 14.5823C40.4191 14.454 40.4421 14.326 40.493 14.2077C40.7494 13.4727 40.5618 12.8184 40.0788 12.2582C39.8764 12.0212 39.5877 11.9205 39.1937 12.0702C38.6877 12.2662 38.1143 12.2622 37.5746 12.1761C37.2777 12.1311 37.0065 11.653 36.9984 11.2491C36.9863 10.7312 37.0416 10.2412 37.329 9.76711C37.4707 9.53137 37.3924 9.17644 37.6623 8.95395C37.9503 8.69568 38.272 8.47612 38.6189 8.30104C38.724 8.26476 38.8218 8.21051 38.9076 8.1408C39.0979 7.93022 39.3246 7.97657 39.5175 8.07193C39.6557 8.15264 39.8107 8.20154 39.9709 8.21496C40.3284 8.21496 40.5902 8.31296 40.7426 8.652C40.8182 8.81887 41.0003 8.82416 41.1676 8.82284C41.5799 8.80097 41.993 8.80363 42.4049 8.83079C42.9446 8.89568 43.2077 8.53148 43.4749 8.20039C43.5331 8.1201 43.5589 8.02142 43.5472 7.92352C43.5355 7.82562 43.4871 7.73549 43.4115 7.67065C43.2779 7.56358 43.1546 7.44478 43.0431 7.31572C42.7827 6.96344 42.5129 6.89457 42.1108 7.13163C41.8072 7.3091 41.4793 7.10912 41.2014 6.97403C40.7102 6.73697 40.3351 6.77008 40.1125 7.25083C39.9155 7.6733 39.5809 7.67859 39.2342 7.7117C38.9844 7.72826 38.7337 7.72826 38.484 7.7117C38.349 7.7117 38.1979 7.76733 38.1129 7.61238C38.0745 7.53563 38.0589 7.4498 38.068 7.36475C38.0771 7.27971 38.1104 7.19891 38.1642 7.13163C38.2991 6.98993 38.434 6.80054 38.6594 6.77406C39.0426 6.72638 39.1653 6.4668 39.1707 6.14234C39.1707 5.66822 39.2126 5.20601 39.4622 4.78354L39.4689 4.77295C39.5836 4.77295 39.6983 4.77295 39.8116 4.77295C39.875 4.77295 39.9466 4.77295 40.0032 4.77295H40.2555C41.1151 4.80245 41.9628 4.97996 42.7598 5.2974C42.7679 5.30402 42.7787 5.30799 42.7868 5.31461C42.9246 5.39323 43.0713 5.45589 43.2239 5.50135C44.5271 6.12777 45.6141 7.11601 46.3502 8.34342C46.2395 8.56591 46.0682 8.46394 45.9143 8.3858C45.8194 8.32743 45.7101 8.29559 45.5981 8.29372C45.4861 8.29185 45.3757 8.32003 45.2788 8.37521C45.1061 8.48248 45.1439 8.70762 45.1682 8.89038C45.1755 8.9444 45.1957 8.99596 45.2272 9.04081C45.2587 9.08566 45.3007 9.12254 45.3495 9.14839C45.3984 9.17425 45.4528 9.18835 45.5083 9.18955C45.5638 9.19074 45.6188 9.17899 45.6688 9.15525C46.083 9.00295 46.4055 9.10096 46.6214 9.4678C46.6611 9.52939 46.678 9.60256 46.6692 9.67495C46.6603 9.74734 46.6263 9.81451 46.5728 9.86511Z" fill="#DEDEDE"/>
<path d="M35.633 14.3307C35.349 14.6655 35.1803 15.08 35.1513 15.5147C35.1531 15.681 35.094 15.8423 34.9848 15.9695C34.8756 16.0966 34.7236 16.181 34.5563 16.2073C34.393 16.2298 34.3525 16.4484 34.2594 16.5397C33.6239 15.7667 33.1581 14.8731 32.8913 13.9149C32.8656 13.8353 32.8444 13.7544 32.8279 13.6725C32.8144 13.6222 32.8049 13.5745 32.7941 13.5242C32.78 13.3806 32.78 13.236 32.7941 13.0924C32.8103 12.9216 32.7064 12.7905 32.6592 12.6474C32.6525 12.5773 32.6457 12.5071 32.6444 12.4355L33.0492 12.5163C33.3689 12.5812 33.6442 12.6898 33.6185 13.0885C33.6185 13.1891 33.6185 13.3109 33.7332 13.3335C34.0557 13.3944 34.2932 13.6977 34.6656 13.6248C35.015 13.556 35.2795 13.8327 35.6101 13.8897C35.7868 13.9241 35.7355 14.189 35.633 14.3307Z" fill="#DEDEDE"/>
<path d="M32.6674 11.2478C32.6768 11.1313 32.6943 11.0148 32.7119 10.9009C32.7316 10.8888 32.753 10.8794 32.7753 10.873C32.7537 11.0042 32.8684 11.1803 32.6674 11.2478Z" fill="#D5D4D4"/>
<path d="M41.1327 19.0708C41.124 19.1022 41.1073 19.131 41.0841 19.1543C40.9735 19.1675 40.875 19.1794 40.7522 19.1914C40.8116 18.9742 40.9829 19.0947 41.1327 19.0708Z" fill="#D5D4D4"/>
<path d="M11.94 11.1377V18.1568H9.49649V14.8975H2.65573V18.1515H0.25V11.1324C0.25 7.33542 2.59906 5.30518 6.095 5.30518C9.59094 5.30518 11.94 7.34072 11.94 11.1377ZM9.49649 12.9269V10.9191C9.49649 8.51542 8.16207 7.37515 6.07611 7.37515C3.99015 7.37515 2.65573 8.51542 2.65573 10.9191V12.9269H9.49649Z" fill="#878787"/>
<path d="M70.3185 12.6186V18.1517H67.9694V12.9086C67.9694 11.1869 67.0857 10.3592 65.5826 10.3592C63.9095 10.3592 62.7815 11.3353 62.7815 13.2728V18.1531H60.4271V4.7373H62.7761V9.61757C63.5466 8.82295 64.7312 8.38856 66.1209 8.38856C68.5321 8.38856 70.3185 9.70895 70.3185 12.6186Z" fill="#878787"/>
<path d="M83.2081 8.49727V18.1518H80.971V16.9043C80.1803 17.8314 79.0159 18.279 77.6451 18.279C74.7118 18.279 72.5692 16.3269 72.5692 13.3259C72.5692 10.3249 74.7118 8.38867 77.6451 8.38867C78.9215 8.38867 80.0508 8.80452 80.859 9.67198V8.49727H83.2081ZM80.8955 13.3259C80.8955 11.4797 79.6177 10.305 77.9068 10.305C76.2162 10.305 74.9385 11.4797 74.9385 13.3259C74.9385 15.172 76.2162 16.3441 77.9068 16.3441C79.6177 16.3441 80.8955 15.1681 80.8955 13.3259Z" fill="#878787"/>
<path d="M85.4585 13.3259C85.4585 10.4322 87.7131 8.38867 90.8906 8.38867C92.8457 8.38867 94.4054 9.16475 95.1759 10.6321L93.3719 11.6439C93.1111 11.2254 92.7429 10.8814 92.3042 10.6464C91.8654 10.4115 91.3714 10.2937 90.8717 10.305C89.142 10.305 87.8264 11.4625 87.8264 13.3259C87.8264 15.1893 89.142 16.3441 90.8717 16.3441C91.3713 16.3555 91.8652 16.238 92.3039 16.0032C92.7427 15.7685 93.111 15.4248 93.3719 15.0065L95.1759 16.0249C94.4054 17.4645 92.8457 18.2763 90.8906 18.2763C87.7131 18.2763 85.4585 16.2183 85.4585 13.3259Z" fill="#878787"/>
<path d="M101.206 14.0131L99.4518 15.6024V18.1517H97.1081V4.7373H99.4585V12.8358L104.325 8.49716H107.145L102.953 12.5484L107.541 18.1517H104.683L101.206 14.0131Z" fill="#878787"/>
<path d="M119.508 15.2763H117.177V18.1515H114.809V15.2763H107.592V13.65L114.075 5.49463H116.691L110.583 13.2872H114.887V10.7404H117.181V13.2872H119.512L119.508 15.2763Z" fill="#878787"/>
<path d="M120.932 5.55146C120.932 4.79127 121.572 4.19531 122.437 4.19531C123.301 4.19531 123.94 4.75552 123.94 5.49451C123.94 6.28913 123.32 6.90495 122.437 6.90495C121.553 6.90495 120.932 6.30899 120.932 5.55146ZM121.252 8.49683H123.601V18.1514H121.252V8.49683Z" fill="#878787"/>
<path d="M143.465 12.6187V18.1519H141.113V12.9087C141.113 11.187 140.287 10.3593 138.858 10.3593C137.317 10.3593 136.245 11.3354 136.245 13.2517V18.1519H133.898V12.9087C133.898 11.187 133.073 10.3593 131.644 10.3593C130.084 10.3593 129.03 11.3354 129.03 13.2517V18.1519H126.676V8.49727H128.913V9.7276C129.664 8.85882 130.83 8.38867 132.202 8.38867C133.668 8.38867 134.89 8.91842 135.585 9.99909C136.395 9.00317 137.744 8.38867 139.344 8.38867C141.774 8.38867 143.465 9.70906 143.465 12.6187Z" fill="#878787"/>
<path d="M157.123 13.3259C157.123 16.3269 154.964 18.279 152.03 18.279C150.752 18.279 149.624 17.8618 148.816 16.9771V21.6588H146.467V8.49727H148.704V9.76336C149.492 8.83631 150.658 8.38867 152.03 8.38867C154.962 8.38867 157.123 10.3421 157.123 13.3259ZM154.736 13.3259C154.736 11.4797 153.459 10.305 151.768 10.305C150.077 10.305 148.778 11.4797 148.778 13.3259C148.778 15.172 150.075 16.3441 151.768 16.3441C153.461 16.3441 154.74 15.1681 154.74 13.3259H154.736Z" fill="#878787"/>
<path d="M169.167 8.49727V18.1518H166.93V16.9043C166.14 17.8314 164.975 18.279 163.602 18.279C160.67 18.279 158.529 16.3269 158.529 13.3259C158.529 10.3249 160.67 8.38867 163.602 8.38867C164.882 8.38867 166.008 8.80452 166.816 9.67198V8.49727H169.167ZM166.854 13.3259C166.854 11.4797 165.575 10.305 163.866 10.305C162.156 10.305 160.897 11.4797 160.897 13.3259C160.897 15.172 162.176 16.3441 163.866 16.3441C165.555 16.3441 166.854 15.1681 166.854 13.3259Z" fill="#878787"/>
<path d="M171.419 13.3259C171.419 10.4322 173.673 8.38867 176.849 8.38867C178.805 8.38867 180.364 9.16475 181.135 10.6321L179.329 11.6439C179.069 11.2253 178.701 10.8812 178.263 10.6462C177.824 10.4112 177.33 10.2936 176.831 10.305C175.101 10.305 173.785 11.4625 173.785 13.3259C173.785 15.1893 175.101 16.3441 176.831 16.3441C177.33 16.3558 177.824 16.2384 178.262 16.0036C178.701 15.7689 179.069 15.425 179.329 15.0065L181.135 16.0183C180.364 17.4645 178.805 18.279 176.849 18.279C173.673 18.2763 171.419 16.2183 171.419 13.3259Z" fill="#878787"/>
<path d="M188.707 17.6288C188.143 18.0618 187.297 18.279 186.451 18.279C184.251 18.279 182.993 17.1586 182.993 15.0251V6.36377H185.342V8.57015H188.029V10.3779H185.342V14.9655C185.342 15.9045 185.85 16.4117 186.733 16.4117C187.204 16.4252 187.666 16.2855 188.048 16.0144L188.707 17.6288Z" fill="#878787"/>
<path d="M195 13.3259C195 10.4322 197.254 8.38867 200.43 8.38867C202.386 8.38867 203.939 9.16475 204.716 10.6321L202.909 11.6439C202.648 11.2253 202.28 10.8813 201.841 10.6463C201.403 10.4113 200.909 10.2936 200.409 10.305C198.68 10.305 197.364 11.4625 197.364 13.3259C197.364 15.1893 198.68 16.3441 200.409 16.3441C200.909 16.3558 201.402 16.2384 201.841 16.0036C202.28 15.7688 202.648 15.425 202.909 15.0065L204.713 16.0183C203.943 17.4645 202.383 18.279 200.428 18.279C197.254 18.2763 195 16.2183 195 13.3259Z" fill="#878787"/>
<path d="M216.537 12.6186V18.1517H214.186V12.9086C214.186 11.1869 213.302 10.3592 211.799 10.3592C210.126 10.3592 208.998 11.3353 208.998 13.2728V18.1531H206.649V4.7373H208.998V9.61757C209.77 8.82295 210.953 8.38856 212.344 8.38856C214.75 8.38856 216.537 9.70895 216.537 12.6186Z" fill="#878787"/>
<path d="M229.425 8.49727V18.1518H227.188V16.9043C226.398 17.8314 225.233 18.279 223.862 18.279C220.928 18.279 218.787 16.3269 218.787 13.3259C218.787 10.3249 220.928 8.38867 223.862 8.38867C225.14 8.38867 226.266 8.80452 227.076 9.67198V8.49727H229.425ZM227.112 13.3259C227.112 11.4797 225.834 10.305 224.124 10.305C222.433 10.305 221.155 11.4797 221.155 13.3259C221.155 15.172 222.434 16.3441 224.124 16.3441C225.834 16.3441 227.112 15.1681 227.112 13.3259Z" fill="#878787"/>
<path d="M243.16 13.3259C243.16 16.3269 241.001 18.279 238.067 18.279C236.788 18.279 235.661 17.8618 234.853 16.9771V21.6588H232.502V8.49727H234.74V9.76336C235.529 8.83631 236.695 8.38867 238.067 8.38867C240.999 8.38867 243.16 10.3421 243.16 13.3259ZM240.773 13.3259C240.773 11.4797 239.494 10.305 237.805 10.305C236.116 10.305 234.816 11.4797 234.816 13.3259C234.816 15.172 236.113 16.3441 237.805 16.3441C239.497 16.3441 240.773 15.1681 240.773 13.3259Z" fill="#878787"/>
<path d="M251.032 17.6288C250.468 18.0618 249.622 18.279 248.776 18.279C246.576 18.279 245.318 17.1586 245.318 15.0251V6.36377H247.667V8.57015H250.354V10.3779H247.667V14.9655C247.667 15.9045 248.175 16.4117 249.058 16.4117C249.529 16.425 249.991 16.2853 250.373 16.0144L251.032 17.6288Z" fill="#878787"/>
<path d="M260.126 15.3151L261.367 16.7056C260.483 17.7373 259.073 18.279 257.345 18.279C253.98 18.279 251.801 16.1997 251.801 13.3259C251.801 10.452 253.98 8.38867 256.969 8.38867C259.768 8.38867 262.024 10.1964 262.043 13.2173L254.352 14.6622C254.839 15.7667 255.93 16.3626 257.396 16.3626C258.528 16.3626 259.393 16.0249 260.126 15.3151ZM254.074 13.1961V13.2146L259.751 12.1644C259.43 10.9924 258.379 10.1977 256.969 10.1977C255.26 10.1977 254.074 11.3552 254.074 13.1987V13.1961Z" fill="#878787"/>
<path d="M270.102 8.38867V10.5408C269.924 10.5072 269.744 10.489 269.562 10.4865C267.776 10.4865 266.649 11.4983 266.649 13.4689V18.1519H264.3V8.49727H266.537V9.90639C267.207 8.89458 268.429 8.38867 270.102 8.38867Z" fill="#878787"/>
<path d="M29.9809 10.2174H27.7695V0H37.8147V2.17063H29.9809V10.2174Z" fill="#878787"/>
<path d="M52.2195 24H41.8059V21.8281H50.008V13.7998H52.2195V24Z" fill="#878787"/>
</svg>
