<svg xmlns="http://www.w3.org/2000/svg" viewBox="0 0 1502.47 1306.84"><defs><style>.cls-1{isolation:isolate;}.cls-10,.cls-11,.cls-16,.cls-2{fill:none;}.cls-2{stroke:#ffd528;stroke-width:4.94px;}.cls-11,.cls-16,.cls-2{stroke-miterlimit:10;}.cls-3{fill:#ffd528;}.cls-4{fill:#ef5266;}.cls-5{fill:#ffd1ca;}.cls-6{fill:#333;}.cls-7{fill:#ce1e4d;}.cls-12,.cls-8{fill:#0a0a0a;}.cls-9{fill:#f69055;}.cls-11{stroke:#ad0202;}.cls-11,.cls-16{stroke-width:2.47px;}.cls-12{mix-blend-mode:multiply;}.cls-13{fill:#22285b;}.cls-14{fill:#191c4f;}.cls-15{fill:#f3aea3;}.cls-16{stroke:#ba1a1a;}</style></defs><title>orgsite_illo1</title><g class="cls-1"><g id="Layer_3" data-name="Layer 3"><path class="cls-2" d="M917.68,400.34c-27.83,52.81-42.9,111.37-44.17,160.75"/><path class="cls-2" d="M481.6,433.27c100.25,9.19,120.43,60-46.93,100.46"/><path class="cls-2" d="M189.77,412.47a330.9,330.9,0,0,0,37.48,9.11c64.9,12.08,144.3,10.78,217.54,10.25,13.18-.1,25.5.41,36.81,1.44"/><path class="cls-2" d="M1166,754.54A257.27,257.27,0,0,0,1217.77,742c47.09-17.15,175.23-95.17,241.43-48.89"/><path class="cls-3" d="M0,1022.58c6-55.58,22.42-164,79.55-265.23s137.07-169,237.43-201l1.5,4.71c-99.14,31.6-178.07,98.46-234.63,198.71-56.69,100.5-77.1,207.75-83.09,263Z"/><path class="cls-3" d="M617.55,366.34c-29.1-7.25-58.29-28.95-91.75-63l1.69-.69c34.35,35,65.85,53.69,95.19,59.82l-1,4.83C620.3,367,618.92,366.69,617.55,366.34Z"/><path class="cls-2" d="M398.08,206.46q12.12,4.54,24,10.32c26.2,12.78,53.31,28.33,74,53q14.43,17.17,28,31.16"/><path class="cls-3" d="M1292.12,991.7a373.71,373.71,0,0,0-27.23,35.49q-6.3,9.27-12.15,18.85l-5.82,9.62q-2.91,4.85-5.9,9.63c-7.93,12.78-16.11,25.39-24.26,38s-16.22,25.24-23.76,38.18c-3.79,6.45-7.35,13-10.74,19.69-1.62,3.36-3.32,6.69-4.78,10.12-.74,1.71-1.56,3.39-2.23,5.13l-2.07,5.19c-5.26,13.91-8.82,28.59-8.87,43.47a54.51,54.51,0,0,0,.13,5.57c.13,1.85.11,3.72.41,5.55l.72,5.53c.32,1.82.74,3.64,1.11,5.46.19.91.36,1.82.58,2.72l.78,2.68c.53,1.78,1,3.59,1.59,5.35,1.34,3.47,2.47,7,4.12,10.38,6.11,13.61,14.52,26.14,24.06,37.67l-1,.86c-9.71-11.5-18.33-24-24.66-37.79-1.71-3.38-2.89-7-4.29-10.5-.63-1.79-1.11-3.62-1.68-5.43l-.81-2.72c-.24-.92-.42-1.85-.63-2.78-.39-1.85-.84-3.69-1.18-5.56l-.79-5.63c-.33-1.88-.33-3.78-.48-5.67a56.93,56.93,0,0,1-.19-5.69c-.1-15.22,3.39-30.24,8.6-44.41l2-5.29c.66-1.77,1.48-3.48,2.21-5.22,1.45-3.49,3.12-6.87,4.73-10.29q5-10.14,10.63-20c7.45-13.09,15.44-25.84,23.46-38.54s16.07-25.37,23.84-38.18c2-3.2,3.89-6.41,5.78-9.65l5.74-9.7q5.81-9.7,12.06-19.14a378.08,378.08,0,0,1,27.23-36.22Z"/><rect class="cls-4" x="797.68" y="369.9" width="81.11" height="81.11" transform="translate(469.03 -446.75) rotate(40.61)"/><path class="cls-5" d="M1100.64,528.39c-6.48-.22-12.86-.67-19.11-1.29-14.9-8.42-12.27-22.31-17.36-27.42,3-.49,8-7.78,8.89-11.88,2.15-10.05,11.74-22.06,24.84-31.34C1077.84,475.07,1081.58,505.77,1100.64,528.39Z"/><path class="cls-6" d="M914.26,473.93c2,2,4.22,4.2,6.57,6.52,12,11.93,28.13,27.67,46.7,44.21l-15.16,60.81L748,534.51l33.45-134.17,204.38,51L974.45,496.9a359.21,359.21,0,0,1-47.06-26.77c-2.2-1.47-4.26-2.9-6.21-4.27C904.67,454.24,903.13,462.86,914.26,473.93Z"/><path class="cls-4" d="M421.87,382.4c-8.23-6.17-22.56-6.87-40.1-4-12.66,2.11-26.95,6.08-41.83,11.27h0c-29,10.05-60.23,24.64-85.48,38.59a37.68,37.68,0,0,1-5.86,2.69h0c-32.95,11.35-29.33-56.21-23.5-97,.38-2.78.8-5.45,1.21-7.94,45.15,3.9,108.74,1,144.82-5.26h0l21.5,6c.13.31.26.6.41.91C399.75,342.87,409,360.42,421.87,382.4Z"/><path class="cls-7" d="M393,327.63l-1,.24c-3.1.7-6.53,1.4-10.28,2.06h0c-36.07,6.24-99.67,9.16-144.81,5.26-4.11-.37-8.08-.77-11.85-1.25.38-2.78.8-5.45,1.21-7.94,45.15,3.9,108.74,1,144.82-5.26h0l21.5,6C392.73,327,392.86,327.32,393,327.63Z"/><path class="cls-8" d="M429.36,270.2s-8.46-3-20.25-7.65l3.75-1.58h0c5.12,1.51,10.36,2.94,15.7,4.25Z"/><rect class="cls-9" x="125.97" y="883.36" width="61.62" height="61.62" transform="translate(679.04 147.66) rotate(44)"/><rect class="cls-4" x="90.86" y="467.32" width="51.43" height="51.43" transform="translate(18.83 -4.08) rotate(2.18)"/><rect class="cls-9" x="423.65" y="10.76" width="74" height="74" transform="translate(47.3 -161.1) rotate(20.89)"/><rect class="cls-9" x="634.88" y="477.07" width="31.82" height="31.82" transform="translate(-54.27 81.34) rotate(-6.87)"/><rect class="cls-9" x="1347.69" y="1182.23" width="52.76" height="52.76" transform="translate(-62.84 75.43) rotate(-3.07)"/><rect class="cls-4" x="231.23" y="820.38" width="28.21" height="28.21" transform="matrix(1, -0.02, 0.02, 1, -14.53, 4.41)"/><path class="cls-10" d="M412.86,261l-3.75,1.58-20.59,8.71-15.36,6.5c-5-13.51-9.11-25.58-12.32-35.77,4.91,2.14,10.12,4.31,15.61,6.46C387.59,252.84,399.85,257.16,412.86,261Z"/><path class="cls-4" d="M376.45,248.45c-7.5-3.57-14.76-7.34-21-11.1,3.21,10.19,12.71,26.9,17.68,40.41l-41.23,17.42c18.05,4.14,35.3,7.38,48.51,8.51l.94,15c-3.1.7-6.53,1.4-10.28,2.06h0C335,327,271.4,329.9,226.25,326c-26-2.27-45.9-6.79-50.86-14.24-9-13.57,8.18-117.22,24.78-149.18,19.89-38.37,29.9-47.9,47.74-46.38,8.36.73,18.46,3.89,32.14,7.6.86.24,1.73.51,2.64.74,62,15.79,103.74,96.64,142.33,117.58L427,255l1.57,10.21.77,5s-8.46-3-20.25-7.65C399.5,258.76,387.7,253.83,376.45,248.45Z"/><path class="cls-11" d="M471.63,263.64a153.7,153.7,0,0,1-33.06-13.54"/><path class="cls-7" d="M331.93,295.18l7.42.58c-42.33-9.67-101.59-29-108.43-32.68l-.52,3.62C270.19,280.93,324.49,294.06,331.93,295.18Z"/><path class="cls-7" d="M409.74,415a413.12,413.12,0,0,0-28-36.59c17.54-2.9,31.87-2.2,40.1,4a18.37,18.37,0,0,1,7.19,12.17C430.12,400.74,420.74,411.53,409.74,415Z"/><path class="cls-11" d="M409.74,415c-.42.15-.83.27-1.24.38"/><path class="cls-6" d="M345.7,793l-17.42-10.39s2.6-76.77.78-130.26c-.68-19.43-1.94-35.8-4.12-44.31-1-3.75-2.71-8.91-5.05-15.14v0C304.67,552.48,264.4,467.57,248.57,431a37.68,37.68,0,0,0,5.86-2.69c25.25-14,56.44-28.54,85.48-38.59h0c20.09,66.83,37.94,147.5,45,184.18,1,5.16,1.24,12.09.91,20.33C383.59,649.06,356.19,758.53,345.7,793Z"/><path class="cls-12" d="M329.06,652.31c-17,16.57-34,32.53-49.95,46.66L267,683.78s26.7-47,52.88-90.92c2.34,6.23,4.08,11.39,5.05,15.14C327.12,616.51,328.38,632.88,329.06,652.31Z"/><path class="cls-8" d="M385.82,594.21c.33-8.24.1-15.17-.91-20.33-7-36.68-24.88-117.35-45-184.18,14.88-5.19,29.17-9.16,41.83-11.27a413.12,413.12,0,0,1,28,36.59c24.89,36.27,45.35,75.67,46,88.28C456.32,513.41,426,551.1,385.82,594.21Z"/><line class="cls-11" x1="462.28" y1="240.09" x2="438.57" y2="250.1"/><polygon class="cls-6" points="615.15 267.33 439.87 337.94 429.36 270.2 428.6 265.22 427.02 255.01 425.02 242.12 419.39 205.78 591.42 141.73 615.15 267.33"/><path class="cls-5" d="M388.52,316.9l-5.16,1.3-2,.48-.94-15c.94.08,1.86.16,2.77.2.23,0,.47.05.7.05C423.84,306.62,406.45,312.31,388.52,316.9Z"/><path class="cls-13" d="M315,56.57c-6.66,1-15.92.3-28.66-1.45a10.41,10.41,0,0,0-1.48-.09c-7.06-.06-15,6.1-17.69,10.73a6.39,6.39,0,0,0-.93,2.31c-3.45-4.55-7.87-6.49-10.32-4.13-2.17,2.08-2.83,7.47-.06,17.29a11.89,11.89,0,0,1,.14,4l0,.07c-.68,6.48-4.29,15.88-4.29,15.88-10.8-4.35-17.28-59.57,18.64-73.05,18.12-6.83,49.72,5.58,60.32-4.47C331.23,45.46,328.48,54.55,315,56.57Z"/><path class="cls-14" d="M256,85.28a11.89,11.89,0,0,0-.14-4c-2.77-9.82-2.11-15.21.06-17.29-.26,2.48,0,6.3,1.1,11.8C257.34,77.64,256.79,81.29,256,85.28Z"/><path class="cls-14" d="M271,70.42c-1.15-1.51-2.5-3.14-3.9-4.66C269.8,61.13,277.75,55,284.81,55,277,55.29,271.71,65.93,271,70.42Z"/><path class="cls-5" d="M315.38,88.7s-5.88,3.5-8.23,8.15c-4.09,8.14-13.9,14.73-24.41,16.18l-2.69,10.77c-13.68-3.71-23.78-6.87-32.14-7.6l3.73-15s3.61-9.4,4.29-15.88l0-.07a11.89,11.89,0,0,0-.14-4c-2.77-9.82-2.11-15.21.06-17.29,2.45-2.36,6.87-.42,10.32,4.13a6.39,6.39,0,0,1,.93-2.31C269.8,61.13,277.75,55,284.81,55a10.41,10.41,0,0,1,1.48.09c12.74,1.75,22,2.46,28.66,1.45-.21.53-.45,1.08-.69,1.63C309.57,68.89,312,83.93,315.38,88.7Z"/><line class="cls-4" x1="328.66" y1="769.66" x2="327.62" y2="804.99"/><path class="cls-5" d="M328.28,782.57,345.7,793,373.44,833a1,1,0,0,1-1.39,1.49L334.27,812a14.13,14.13,0,0,1-6.87-12.87Z"/><path class="cls-15" d="M283.84,734.83,261.56,703a7.86,7.86,0,0,1-.49-8.22l5.93-11L279.11,699l6.53,35.1A1,1,0,0,1,283.84,734.83Z"/><path class="cls-8" d="M439.87,337.94l-2.8,1.14L392.6,326.72l-21.5-6c3.75-.66,7.18-1.36,10.28-2.06l2-.48,5.16-1.3c17.93-4.59,35.32-10.28-4.61-13-.23,0-.47,0-.7-.05-.91,0-1.83-.12-2.77-.2-13.21-1.13-30.46-4.37-48.51-8.51l41.23-17.42,15.36-6.5,20.59-8.71c11.79,4.67,20.25,7.65,20.25,7.65Z"/><path class="cls-16" d="M1110.11,528.58c-3.18,0-6.34-.08-9.47-.19"/><path class="cls-6" d="M1296.23,814.58s-55.79,102.74-58.3,120.89,13.4,59.08,45.69,209.26L1264,1161.34c-22.44-28.38-102.44-223.44-100.87-237.81S1178.07,831.37,1187,782c.16-1,.32-1.91.42-2.92,34.47,2.44,78.63-16.22,125.75-41.21,30-16,59.35-21.35,78.32-20.38-.78,7.84-1.39,17.23-1.87,27.59-2.59,58.58-.1,148.16,7.66,168.06,10,25.73,22.82,79.26,80.33,186.56L1459,1117.86S1330.45,948.76,1318.8,926,1299.82,861.12,1296.23,814.58Z"/><path class="cls-16" d="M1393.27,704l0-.09"/><path class="cls-7" d="M1389.65,745.07c.48-10.36,1.09-19.75,1.87-27.59,10.3.5,17.57,2.88,20.29,6.46.41.83.78,1.69,1.12,2.56C1413.68,731.55,1406.89,738.18,1389.65,745.07Z"/><path class="cls-4" d="M1411.81,723.94c-2.72-3.58-10-6-20.29-6.46-19-1-48.27,4.42-78.32,20.38-47.12,25-91.28,43.65-125.75,41.21,3.86-33.56-22.37-101.51-22.37-101.51-19.24-4.55-31.17-14.06-38.54-24.37-13.1-18.28-11.92-39-11.92-39C1065,604,1009.8,562.26,967.53,524.66c-18.57-16.54-34.67-32.28-46.7-44.21l6.56-10.32a359.21,359.21,0,0,0,47.06,26.77,325.65,325.65,0,0,0,107.08,30.2c6.25.62,12.63,1.07,19.11,1.29a72.2,72.2,0,0,0,23.78,18.82c37.29,17.95,93.27,18.42,97.21,57.13,11,107.79,74,68.77,111.12,73.27a103.74,103.74,0,0,1,15.6,3.33c13.16,7.41,31,13.68,44.92,23.08C1401.25,709.37,1408,715.75,1411.81,723.94Z"/><path class="cls-7" d="M1126.54,653.19c-78-28-133-78.93-163.38-111l4.37-17.5c42.27,37.6,97.43,79.31,147.09,89.51C1114.62,614.17,1113.44,634.91,1126.54,653.19Z"/><path class="cls-5" d="M927.39,470.13l-6.56,10.32c-2.35-2.32-4.55-4.52-6.57-6.52-11.13-11.07-9.59-19.69,6.92-8.07C923.13,467.23,925.19,468.66,927.39,470.13Z"/><rect class="cls-9" x="940.37" y="391.14" width="39.59" height="39.59" transform="translate(-20.66 52.08) rotate(-3.07)"/><rect class="cls-4" x="890.21" y="343.52" width="22.31" height="22.31" transform="translate(133.1 -235.27) rotate(16.04)"/><rect class="cls-4" x="1106.6" y="328.6" width="28.07" height="28.07" transform="translate(672.69 -740.22) rotate(50.53)"/><path class="cls-13" d="M1344.53,683.6a103.48,103.48,0,0,0-15.6-3.33c-37.14-4.51-100.12,34.51-111.12-73.27-3.94-38.71-59.91-39.18-97.21-57.13A72.09,72.09,0,0,1,1096.83,531c-19.07-22.61-25.08-55.45-5-74.06,11.92-8.42,28.63-12.81,50.63-6.33,49.67,14.62,74.65,89.34,135.74,106,54.64,14.92,186.73,36,176.44,108.92C1445.49,730.39,1388,695.84,1344.53,683.6Z"/><path class="cls-5" d="M1264,1161.34l19.62-16.61,2.74,12.7a16.55,16.55,0,0,1-4.24,15l-35.6,37a1.58,1.58,0,0,1-2.59-1.72Z"/><path class="cls-5" d="M1443.59,1161.46l15.4-43.6,18.65-18.17,5,9.54a10.88,10.88,0,0,1-1.25,12l-34.65,42A1.82,1.82,0,0,1,1443.59,1161.46Z"/><path class="cls-2" d="M1459.2,693.06c24.84,17.37,41,52.25,40.8,114.43,0,8-2.51,15.19-4.18,21.77"/><path class="cls-3" d="M1029.93,749.16c-40.78-10.17-79.7-27.85-108.78-54.78-36.12-33.44-52-77-48.68-128.83l1.44.4c-3.22,50.31,15.62,92.43,50.59,124.81,43.09,39.9,136.93,76.11,241.15,61.34l.69,4.89C1126.6,762.62,1077,760.9,1029.93,749.16Z"/><path class="cls-2" d="M622.18,364.87c53.72,11.19,104-21.61,167.29-87,95.57-98.77,249-37.66,165.56,65.42a350.75,350.75,0,0,0-37.35,57.07"/><path class="cls-2" d="M398.08,206.46C244.57,148.85,66.5,236.56,97.7,334.16c12.91,40.36,46.83,64.25,92.07,78.31"/><path class="cls-2" d="M1495.82,829.26c-25.1,99.23-111.33,51.87-205.56,160.83"/></g></g></svg>