<svg id="Layer_3" data-name="Layer 3" xmlns="http://www.w3.org/2000/svg" viewBox="0 0 1000 1050.89"><defs><style>.cls-1{fill:#ffd528;}.cls-2{fill:none;stroke:#ffd528;stroke-miterlimit:10;stroke-width:5.19px;}.cls-3{fill:#f3aea3;}.cls-4{fill:#ffd1ca;}.cls-5{fill:#f69055;}.cls-6{fill:#ef5266;}.cls-7{fill:#0a0a0a;}.cls-8{fill:#333;}.cls-9{fill:#ce1e4d;}.cls-10{fill:#22285b;}</style></defs><title>orgsite_illo2</title><path class="cls-1" d="M93.53,1050.89c45.11-13.36,68.48-60.34,60.82-130.45-2.17-19.82-4.53-38.07-6.81-55.71C134.83,766.36,127.16,707,196,675.06c27.3-12.66,54.14-10,89.76,9l2.44-4.58c-37.21-19.84-65.44-22.58-94.38-9.16-72.32,33.54-64.47,94.33-51.45,195,2.28,17.62,4.63,35.84,6.8,55.61,10.62,97.17-35.48,122.76-55.89,128.81Z"/><path class="cls-2" d="M457.44,775.24q9.58,2.79,19.64,4.89c40.57,8.42,135.83,22.74,210.12,4.89"/><path class="cls-2" d="M287,681.8c41.72,22.25,86.38,61.07,144.18,84.33"/><path class="cls-3" d="M839,248c6.86-35.67,1.19-31.21-12.37-3.94"/><path class="cls-4" d="M204.85,905.51l-4.7,68.23a1.59,1.59,0,0,0,3,.75L223,929.76l2.6-37.71-15.47,6.17A8.49,8.49,0,0,0,204.85,905.51Z"/><rect class="cls-5" x="162.45" y="607.88" width="32.65" height="32.65" transform="translate(250.36 1269.54) rotate(-170.35)"/><rect class="cls-5" x="921.83" y="70.19" width="64.81" height="64.81" transform="translate(1732.02 -459.67) rotate(138)"/><rect class="cls-6" x="849.24" y="0.76" width="29.67" height="29.67" transform="translate(1726.15 76.38) rotate(-177)"/><rect class="cls-6" x="7.59" y="765.98" width="62.65" height="62.65" transform="translate(301.9 1550.99) rotate(163.56)"/><path class="cls-6" d="M564.62,594.13C597,614.31,673.47,663.33,730.55,661,829.22,532.73,905.08,363.54,901.6,238.77l-13.24.16c-.92,3.4-1.87,6.82-2.85,10.18-24.18,84.56-60.8,158.75-122,197.54,2.28,50.18-22.39,94.84-60.92,91.88C660.27,535.28,613.48,553.3,564.62,594.13Z"/><path class="cls-7" d="M218.19,782.15c46.57,14.29,132.34,15.85,235.47-12.81h0c35.2-26.12,62.11-48.32,77.75-73.28,16.8-26.84,27.45-52.65,80.23-80.7-19.78-7.13-36.51-14.69-47-21.24q-6.21,5.19-12.49,10.89a115.83,115.83,0,0,1-18.28,13.28h0C473.66,683,345.06,734,216.41,761.3Z"/><path class="cls-8" d="M223,929.76c200.46,10,394-120.61,522.75-288-38.55,1.56-92.9-11.49-134.1-26.38h0c-52.78,28-63.43,53.86-80.23,80.7-15.64,25-42.55,47.16-77.75,73.28h0c-77.36,57.37-175.77,102.47-228,122.71Z"/><path class="cls-9" d="M743.36,363c.35.13.72.25,1.08.4,14.26,5.59,20.84,12.17,23.55,19.4l.41,1.17a130.06,130.06,0,0,0,5.65,14.09c26.28-26.75,47.64-70.88,64.91-150l-12.37-3.94C799.88,295.75,771.81,337.8,743.36,363Z"/><path class="cls-4" d="M762.51,435.38c33.13-17,9.32-26.48,18.8-38.34-5.92-2.35-9.5-5.2-12.78-14.91a130.48,130.48,0,0,1-3.84-14.68c1.16,6.2-.26,12.53-2,19.06-2.73,9.85-6.33,20.14-3.51,31.17A141,141,0,0,1,762.51,435.38Z"/><path class="cls-10" d="M307.16,601.34c26.6,68.69,161.49,55.86,226.66,16.95h0A115.83,115.83,0,0,0,552.13,605c4.18-3.81,8.4-7.36,12.49-10.89,63.25-54.48,98.66-21,150.12-43.89,35.3-15.72,51-53.4,48.73-103.59q-.22-5.59-1-11.26a141,141,0,0,0-3.36-17.7c-2.82-11,.78-21.32,3.51-31.17,1.77-6.53,3.19-12.86,2-19.06l-.26-1.22c-1.78-7.5-7.48-14.87-20.93-22.2-.34-.19-.69-.36-1-.53-21.42-10.23-64.91,11.78-78.31,51.9C648,444,589.94,505,451.87,483,344.74,466,277.73,525.31,307.16,601.34Z"/><path class="cls-3" d="M218.19,782.15l-1.78-20.85-11,2.35A8.07,8.07,0,0,0,199,772l2.83,57.31a1.54,1.54,0,0,0,3,.34Z"/><path class="cls-2" d="M642.55,268.12c-199,35.43-148.93,212.84-68,272C669.2,609.23,927.43,729.71,687.2,785"/><path class="cls-8" d="M639.51,269a4.56,4.56,0,0,0,5.27,3.63l291-51.48a25.74,25.74,0,0,0,7-2.34L954.2,213a.36.36,0,0,0-.14-.67l-13.43-.68a26.08,26.08,0,0,0-5.8.35L643.2,263.6a4.56,4.56,0,0,0-3.69,5.35Z"/><path class="cls-4" d="M888.37,238.92l13.24-.16C900.62,207.65,895.3,195,888.37,238.92Z"/></svg>