<svg width="398" height="378" viewBox="0 0 398 378" fill="none" xmlns="http://www.w3.org/2000/svg">
<path d="M239.092 72.903C207.077 68.7474 195.481 49.7192 185.22 32.9533C175.523 17.1315 167.165 3.46951 144.543 2.56657C126.216 1.8432 112.876 15.1255 98.6692 29.2133C85.3292 42.47 71.5275 56.1833 52.6567 58.7895C51.0454 59.0185 49.4202 59.1351 47.7927 59.1384C24.9455 59.1384 15.6589 34.7643 9.09668 8.08678L11.5543 7.48653C20.7435 44.8813 32.5493 58.9999 52.3334 56.2859C70.3731 53.7926 83.867 40.382 96.9144 27.4229C111.47 12.9349 125.231 -0.752729 144.646 0.0322069C168.617 1.02748 177.718 15.9053 187.354 31.6348C197.8 48.7136 208.606 66.3772 239.395 70.3994L239.092 72.903Z" fill="#FD8033"/>
<path d="M25.3715 113.273H0V138.643H25.3715V113.273Z" fill="#FB3552"/>
<path d="M292.894 7.52734H268.112V32.3067H292.894V7.52734Z" fill="#FFB565"/>
<path d="M379.875 333.692H354.765L332.349 230.342L325.535 255.06L303.852 333.692H262.688L295.484 197.79L352.733 199.673L379.875 333.692Z" fill="#FD8033"/>
<path d="M239.99 74.7706L240.744 70.8511L288.337 79.9933L287.121 86.2984L239.99 74.7706Z" fill="#2D285C"/>
<path d="M295.484 197.79L303.334 165.305L299.379 151.925L297.455 145.389L310.795 136.58L298.004 137.093L295.664 114.664L302.986 112.391L308.065 110.811L316.089 108.307C315.746 113.335 316.177 118.747 317.88 123.447C322.041 134.841 326.023 138.735 326.679 145.42C327.623 155.224 315.315 192.567 350.589 189.027L351.348 192.783L352.733 199.642L295.484 197.79Z" fill="#FB3552"/>
<path d="M310.789 136.58L297.454 145.389L295.043 137.226L297.998 137.114L310.789 136.58Z" fill="#2D285C"/>
<path d="M354.765 333.692H340.896L325.54 255.06L332.349 230.342L354.765 333.692Z" fill="#2D285C"/>
<path d="M299.379 151.925L292.601 148.6L280.421 142.608L282.607 137.745L295.044 137.227L297.455 145.389L299.379 151.925Z" fill="#2D285C"/>
<path d="M297.998 137.114L295.043 137.227L282.606 137.745L261.262 138.643L251.509 78.8131L255.639 77.4946L258.076 71.8872L276.403 120.687L292.514 115.669L295.659 114.684L297.998 137.114Z" fill="#FD8033"/>
<path d="M303.971 103.664L302.981 112.386L295.664 114.674L292.509 115.649L299.312 100.499C300.548 101.959 302.159 103.053 303.971 103.664Z" fill="#2D285C"/>
<path d="M320.589 92.3467C318.568 94.758 316.546 101.161 316.079 108.343L308.06 110.816C308.365 109.017 308.558 107.201 308.64 105.378C310.466 104.931 312.011 104.146 313.103 102.212C311.682 102.868 310.207 103.403 308.696 103.813C307.135 104.18 305.504 104.125 303.971 103.654C302.16 103.047 300.549 101.958 299.312 100.504C297.07 97.99 295.833 95.0145 295.018 94.5322C296.68 93.4497 299.122 90.941 300.456 86.3237C304.391 90.1766 310.846 90.8743 315.335 88.1039C322.21 83.8304 324.032 88.2425 320.589 92.3467Z" fill="#FD8033"/>
<path d="M353.754 188.643C352.656 188.822 351.594 188.945 350.583 189.058C315.309 192.588 327.618 155.244 326.674 145.451C326.017 138.781 322.056 134.872 317.875 123.478C316.171 118.778 315.74 113.366 316.084 108.338C316.551 101.156 318.572 94.7428 320.594 92.3418C324.031 88.2735 322.225 83.8358 315.335 88.0939C310.866 90.8643 304.417 90.1461 300.456 86.3137C298.347 84.2616 296.967 81.2963 296.967 77.4947C296.967 67.9524 310.491 61.914 319.829 73.765C340.352 69.2298 338.254 90.4077 336.761 102.413C335.268 114.417 341.892 128.064 354.488 137.227C372.568 150.355 383.389 184.031 353.754 188.643Z" fill="#2D285C"/>
<path d="M300.344 341.685V376.996H288.071L283.71 360.025L272.627 376.996H249.057L262.899 354.762V341.685H300.344Z" fill="#2D285C"/>
<path d="M377.981 341.685V376.996H365.703L361.347 360.025L350.26 376.996H326.694L340.537 354.762V341.685H377.981Z" fill="#2D285C"/>
<path d="M313.103 102.223C312.011 104.157 310.466 104.942 308.64 105.388C308.64 105.291 308.64 105.157 308.64 105.024C308.64 104.619 308.676 104.121 308.686 103.823C310.2 103.414 311.678 102.879 313.103 102.223V102.223Z" fill="#2D285C"/>
<path d="M397.596 67.1982H380.023V84.7695H397.596V67.1982Z" fill="#FD8033"/>
<path d="M192.105 88.7095L187.138 110.128L177.344 106.312L179.181 94.2964L183.208 98.9855L192.105 88.7095Z" fill="#FD8033"/>
<path d="M137.627 166.69L115.523 148.795L136.729 155.29L137.375 163.427L137.627 166.69Z" fill="#2D285C"/>
<path d="M178.893 341.679H137.622L116.77 267.023L106.622 236.241L97.4478 341.679H72.8818C72.8818 341.679 71.5684 245.066 71.5684 204.239L139.935 196.184L178.893 341.679Z" fill="#FD8033"/>
<path d="M116.771 267.023L110.45 341.69H97.4482L106.622 236.267L116.771 267.023Z" fill="#2D285C"/>
<path d="M119.29 103.264C117.53 103.264 113.79 102.869 112.158 101.089C112.816 101.198 113.479 101.273 114.144 101.315C114.713 101.366 115.293 101.392 115.888 101.417C116.837 101.453 117.756 101.417 118.479 101.417C118.72 101.417 118.946 101.381 119.121 101.356L119.239 101.33C119.254 102.012 119.254 102.654 119.29 103.264Z" fill="#2D285C"/>
<path d="M115.867 101.417C115.272 101.392 114.692 101.366 114.123 101.315C114.038 101.273 113.957 101.224 113.882 101.166C114.58 101.289 115.236 101.366 115.867 101.417Z" fill="#2D285C"/>
<path d="M130.506 92.937C127.992 93.5064 126.678 100.253 119.249 101.315L119.136 101.34C118.957 101.366 118.731 101.376 118.49 101.402C117.766 101.443 116.848 101.453 115.899 101.402C115.304 101.376 114.724 101.351 114.154 101.299C113.436 101.248 112.738 101.171 112.169 101.074C113.8 102.854 117.541 103.244 119.3 103.244H119.326C119.372 103.244 119.326 103.244 119.326 103.244C119.443 105.224 119.777 107.185 120.321 109.092C114.283 107.276 108.695 107.63 101.112 107.753H100.645C100.645 107.753 102.389 103.521 102.389 101.084C102.389 97.8467 100.635 95.3841 98.5619 93.5269C94.9191 90.2949 96.7046 84.6515 103.39 87.9862C108.669 90.6232 120.07 87.073 124.329 79.1621C127.248 80.5935 128.433 83.0201 128.946 85.4672C129.659 88.5916 129.372 91.7365 130.506 92.937Z" fill="#FD8033"/>
<path d="M117.602 377.001H75.6221V349.616H108.141V364.227L117.602 377.001Z" fill="#2D285C"/>
<path d="M144.877 349.621V376.996H186.857L177.396 364.217V349.621H144.877Z" fill="#2D285C"/>
<path d="M189.104 146.312L184.163 147.954L165.754 125.289L170.731 121.241L189.104 146.312Z" fill="#2D285C"/>
<path d="M199.406 160.374L196.307 162.888L191.618 157.117L190.961 156.306L188.575 153.377L191.315 151.555L192.403 150.822L199.406 160.374Z" fill="#2D285C"/>
<path d="M181.531 163.114L139.321 188.207L137.627 166.69L137.376 163.427L149.849 159.308L158.987 162.104L162.824 155.014L177.108 150.289L181.531 163.114Z" fill="#2D285C"/>
<path d="M128.946 85.4671C128.402 83.0148 127.237 80.5933 124.328 79.1619C120.064 87.0729 108.669 90.623 103.384 87.9861C96.7143 84.6565 94.898 90.3049 98.5306 93.5524C100.583 95.4045 102.358 97.8773 102.358 101.114C85.7858 97.8054 83.6874 73.5699 97.8482 74.2317C94.9186 62.9912 107.951 59.5129 111.778 64.8741C114.292 58.3278 127.273 59.5539 126.57 69.3887C133.527 70.0557 136.057 80.3009 128.946 85.4671Z" fill="#2D285C"/>
<path d="M191.315 151.556L188.575 153.377L190.961 156.306L191.618 157.117L189.827 158.189L181.536 163.119H181.52L177.098 150.294L184.163 147.954L189.104 146.312L191.038 148.965H191.053L191.064 148.98H195.168L192.403 150.822L191.315 151.556Z" fill="#FD8033"/>
<path d="M189.155 146.302L191.053 148.965H191.038L189.104 146.313L189.155 146.302Z" fill="#FD8033"/>
<path d="M191.064 148.965V148.98L191.054 148.965H191.064Z" fill="#FD8033"/>
<path d="M187.133 110.133L162.819 155.018L158.976 162.119L149.843 159.323L136.724 155.306L115.518 148.78L137.622 166.674L139.315 188.191L139.935 196.163L71.5684 204.249C71.5684 118.573 100.608 107.799 100.608 107.799C100.755 107.807 100.903 107.807 101.05 107.799H101.075C108.658 107.676 114.246 107.322 120.285 109.138C120.798 109.292 121.311 109.466 121.824 109.651C129.053 112.216 137.18 118.116 150.197 131.132L177.303 106.327L187.133 110.133Z" fill="#FB3552"/>
<path d="M205.958 203.433H188.113V221.276H205.958V203.433Z" fill="#FD8033"/>
<path d="M215.045 173.108C209.575 173.108 204.085 171.092 198.601 165.761L200.366 163.945C213.115 176.355 225.87 168.896 239.359 160.995C252.525 153.3 266.137 145.332 281.123 154.079L279.846 156.26C266.137 148.257 253.166 155.844 240.637 163.175C232.248 168.09 223.7 173.108 215.045 173.108Z" fill="#FD8033"/>
</svg>
