<svg width="597" height="161" viewBox="0 0 597 161" fill="none" xmlns="http://www.w3.org/2000/svg">
<path d="M65.3203 13.55C68.5203 13.55 71.5453 14.325 74.3953 15.875C77.2453 17.375 79.5703 19.625 81.3703 22.625L73.4203 26.15C72.5703 24.85 71.4203 23.825 69.9703 23.075C68.5203 22.325 66.9703 21.95 65.3203 21.95C63.7203 21.95 62.1203 22.425 60.5203 23.375C58.9703 24.275 57.6953 25.6 56.6953 27.35C55.6953 29.1 55.1953 31.175 55.1953 33.575C55.1953 35.925 55.6953 37.975 56.6953 39.725C57.6953 41.475 58.9703 42.8 60.5203 43.7C62.1203 44.6 63.7203 45.05 65.3203 45.05C66.9703 45.05 68.5203 44.675 69.9703 43.925C71.4703 43.175 72.6203 42.175 73.4203 40.925L81.4453 44.45C79.5953 47.45 77.2453 49.725 74.3953 51.275C71.5453 52.775 68.5203 53.525 65.3203 53.525C62.3203 53.525 59.2703 52.775 56.1703 51.275C53.1203 49.725 50.5703 47.45 48.5203 44.45C46.4703 41.4 45.4453 37.775 45.4453 33.575C45.4453 29.325 46.4703 25.7 48.5203 22.7C50.5703 19.65 53.1203 17.375 56.1703 15.875C59.2703 14.325 62.3203 13.55 65.3203 13.55ZM110.684 13.625C113.334 13.625 115.759 14.225 117.959 15.425C120.209 16.575 122.009 18.425 123.359 20.975C124.759 23.475 125.459 26.65 125.459 30.5V53H115.634V31.1C115.634 25 113.234 21.95 108.434 21.95C106.584 21.95 104.909 22.425 103.409 23.375C101.909 24.325 100.684 25.475 99.7342 26.825C98.8342 28.175 98.2092 29.45 97.8592 30.65V53H88.0342V0.499996H97.8592V21.575C98.2092 20.625 98.9342 19.55 100.034 18.35C101.134 17.1 102.584 16 104.384 15.05C106.234 14.1 108.334 13.625 110.684 13.625ZM150.237 13.55C152.237 13.55 154.037 13.85 155.637 14.45C157.237 15.05 158.512 15.8 159.462 16.7C160.412 17.55 160.962 18.35 161.112 19.1V14H170.937V53H161.112V47.375C161.012 48.125 160.462 49 159.462 50C158.512 50.95 157.212 51.775 155.562 52.475C153.962 53.175 152.187 53.525 150.237 53.525C147.337 53.525 144.462 52.775 141.612 51.275C138.812 49.725 136.487 47.45 134.637 44.45C132.787 41.4 131.862 37.75 131.862 33.5C131.862 29.3 132.787 25.7 134.637 22.7C136.487 19.7 138.837 17.425 141.687 15.875C144.537 14.325 147.387 13.55 150.237 13.55ZM151.887 21.95C150.187 21.95 148.537 22.425 146.937 23.375C145.387 24.275 144.112 25.6 143.112 27.35C142.162 29.1 141.687 31.15 141.687 33.5C141.687 35.85 142.162 37.9 143.112 39.65C144.112 41.4 145.387 42.75 146.937 43.7C148.537 44.6 150.187 45.05 151.887 45.05C154.587 45.05 156.862 44.1 158.712 42.2C160.612 40.3 161.562 37.4 161.562 33.5C161.562 29.55 160.637 26.65 158.787 24.8C156.937 22.9 154.637 21.95 151.887 21.95ZM202.237 13.625C204.887 13.625 207.312 14.225 209.512 15.425C211.762 16.575 213.562 18.425 214.912 20.975C216.312 23.475 217.012 26.65 217.012 30.5V53H207.187V31.1C207.187 25 204.787 21.95 199.987 21.95C198.137 21.95 196.462 22.425 194.962 23.375C193.462 24.325 192.237 25.475 191.287 26.825C190.387 28.175 189.762 29.45 189.412 30.65V53H179.587V14H189.412V21.575C189.762 20.625 190.487 19.55 191.587 18.35C192.687 17.1 194.137 16 195.937 15.05C197.787 14.1 199.887 13.625 202.237 13.625ZM262.49 14V53C262.49 56.55 261.49 59.475 259.49 61.775C257.49 64.075 255.065 65.75 252.215 66.8C249.365 67.85 246.615 68.375 243.965 68.375C241.215 68.375 239.015 68.1 237.365 67.55C235.715 67 234.015 66.275 232.265 65.375V56.9C236.015 59 239.915 60.05 243.965 60.05C246.665 60.05 248.79 59.35 250.34 57.95C251.89 56.6 252.665 54.95 252.665 53V47.375C252.565 48.125 252.015 49 251.015 50C250.065 50.95 248.765 51.775 247.115 52.475C245.515 53.175 243.74 53.525 241.79 53.525C238.89 53.525 236.015 52.775 233.165 51.275C230.365 49.725 228.04 47.45 226.19 44.45C224.34 41.4 223.415 37.75 223.415 33.5C223.415 29.3 224.34 25.7 226.19 22.7C228.04 19.7 230.39 17.425 233.24 15.875C236.09 14.325 238.94 13.55 241.79 13.55C243.79 13.55 245.59 13.85 247.19 14.45C248.79 15.05 250.065 15.8 251.015 16.7C251.965 17.55 252.515 18.35 252.665 19.1V14H262.49ZM243.44 45.05C246.14 45.05 248.415 44.1 250.265 42.2C252.165 40.3 253.115 37.4 253.115 33.5C253.115 29.55 252.19 26.65 250.34 24.8C248.49 22.9 246.19 21.95 243.44 21.95C241.74 21.95 240.09 22.425 238.49 23.375C236.94 24.275 235.665 25.6 234.665 27.35C233.715 29.1 233.24 31.15 233.24 33.5C233.24 35.85 233.715 37.9 234.665 39.65C235.665 41.4 236.94 42.75 238.49 43.7C240.09 44.6 241.74 45.05 243.44 45.05ZM280.665 8.6H270.615V0.499996H280.665V8.6ZM280.665 53H270.615V14H280.665V53ZM311.807 13.625C314.457 13.625 316.882 14.225 319.082 15.425C321.332 16.575 323.132 18.425 324.482 20.975C325.882 23.475 326.582 26.65 326.582 30.5V53H316.757V31.1C316.757 25 314.357 21.95 309.557 21.95C307.707 21.95 306.032 22.425 304.532 23.375C303.032 24.325 301.807 25.475 300.857 26.825C299.957 28.175 299.332 29.45 298.982 30.65V53H289.157V14H298.982V21.575C299.332 20.625 300.057 19.55 301.157 18.35C302.257 17.1 303.707 16 305.507 15.05C307.357 14.1 309.457 13.625 311.807 13.625ZM372.06 14V53C372.06 56.55 371.06 59.475 369.06 61.775C367.06 64.075 364.635 65.75 361.785 66.8C358.935 67.85 356.185 68.375 353.535 68.375C350.785 68.375 348.585 68.1 346.935 67.55C345.285 67 343.585 66.275 341.835 65.375V56.9C345.585 59 349.485 60.05 353.535 60.05C356.235 60.05 358.36 59.35 359.91 57.95C361.46 56.6 362.235 54.95 362.235 53V47.375C362.135 48.125 361.585 49 360.585 50C359.635 50.95 358.335 51.775 356.685 52.475C355.085 53.175 353.31 53.525 351.36 53.525C348.46 53.525 345.585 52.775 342.735 51.275C339.935 49.725 337.61 47.45 335.76 44.45C333.91 41.4 332.985 37.75 332.985 33.5C332.985 29.3 333.91 25.7 335.76 22.7C337.61 19.7 339.96 17.425 342.81 15.875C345.66 14.325 348.51 13.55 351.36 13.55C353.36 13.55 355.16 13.85 356.76 14.45C358.36 15.05 359.635 15.8 360.585 16.7C361.535 17.55 362.085 18.35 362.235 19.1V14H372.06ZM353.01 45.05C355.71 45.05 357.985 44.1 359.835 42.2C361.735 40.3 362.685 37.4 362.685 33.5C362.685 29.55 361.76 26.65 359.91 24.8C358.06 22.9 355.76 21.95 353.01 21.95C351.31 21.95 349.66 22.425 348.06 23.375C346.51 24.275 345.235 25.6 344.235 27.35C343.285 29.1 342.81 31.15 342.81 33.5C342.81 35.85 343.285 37.9 344.235 39.65C345.235 41.4 346.51 42.75 348.06 43.7C349.66 44.6 351.31 45.05 353.01 45.05ZM413.17 53H403.195V0.499996H413.17V53ZM431.69 8.6H421.64V0.499996H431.69V8.6ZM431.69 53H421.64V14H431.69V53ZM456.845 53H456.32L436.895 14H446.87L456.545 34.925L466.22 14H476.195L456.845 53ZM497.214 13.55C500.164 13.55 503.114 14.35 506.064 15.95C509.064 17.5 511.539 19.8 513.489 22.85C515.489 25.9 516.489 29.5 516.489 33.65C516.489 34.65 516.414 35.75 516.264 36.95H487.764C488.214 39.45 489.439 41.425 491.439 42.875C493.439 44.325 495.639 45.05 498.039 45.05C499.689 45.05 501.164 44.825 502.464 44.375C503.764 43.925 505.064 43.225 506.364 42.275L512.139 47.675C510.389 49.575 508.314 51.025 505.914 52.025C503.514 53.025 500.889 53.525 498.039 53.525C494.939 53.525 491.814 52.775 488.664 51.275C485.514 49.775 482.889 47.525 480.789 44.525C478.689 41.525 477.639 37.875 477.639 33.575C477.639 29.325 478.639 25.7 480.639 22.7C482.639 19.65 485.139 17.375 488.139 15.875C491.189 14.325 494.214 13.55 497.214 13.55ZM497.364 21.95C495.064 21.95 493.014 22.65 491.214 24.05C489.414 25.45 488.289 27.425 487.839 29.975H506.664C506.214 27.425 505.089 25.45 503.289 24.05C501.539 22.65 499.564 21.95 497.364 21.95ZM541.921 25.25C541.171 24 540.371 23.125 539.521 22.625C538.671 22.075 537.696 21.8 536.596 21.8C535.396 21.8 534.421 22.075 533.671 22.625C532.971 23.125 532.621 23.85 532.621 24.8C532.621 25.6 532.871 26.3 533.371 26.9C533.871 27.5 534.721 28.025 535.921 28.475L540.496 30.05C543.296 31.05 545.421 31.925 546.871 32.675C548.371 33.425 549.646 34.525 550.696 35.975C551.746 37.375 552.271 39.25 552.271 41.6C552.271 44.1 551.471 46.25 549.871 48.05C548.321 49.85 546.321 51.225 543.871 52.175C541.421 53.075 538.921 53.525 536.371 53.525C532.671 53.525 529.346 52.6 526.396 50.75C523.446 48.9 521.546 46.375 520.696 43.175L528.796 40.625C529.396 42.075 530.371 43.2 531.721 44C533.121 44.8 534.671 45.2 536.371 45.2C538.021 45.2 539.371 44.875 540.421 44.225C541.471 43.525 541.996 42.6 541.996 41.45C541.996 40.6 541.696 39.85 541.096 39.2C540.496 38.5 539.521 37.9 538.171 37.4L533.671 35.825C529.671 34.425 526.796 32.925 525.046 31.325C523.296 29.675 522.421 27.425 522.421 24.575C522.421 22.375 523.046 20.45 524.296 18.8C525.546 17.1 527.221 15.8 529.321 14.9C531.421 14 533.696 13.55 536.146 13.55C539.696 13.55 542.621 14.375 544.921 16.025C547.221 17.625 549.071 19.95 550.471 23L541.921 25.25ZM20.7141 120.55C23.6141 120.55 26.5891 121.325 29.6391 122.875C32.6891 124.425 35.2391 126.725 37.2891 129.775C39.3891 132.775 40.4391 136.375 40.4391 140.575C40.4391 144.825 39.3891 148.475 37.2891 151.525C35.2391 154.525 32.6891 156.775 29.6391 158.275C26.5891 159.775 23.6141 160.525 20.7141 160.525C17.8141 160.525 14.8141 159.775 11.7141 158.275C8.66406 156.775 6.08906 154.525 3.98906 151.525C1.93906 148.475 0.914063 144.825 0.914063 140.575C0.914063 136.375 1.93906 132.75 3.98906 129.7C6.08906 126.65 8.66406 124.375 11.7141 122.875C14.8141 121.325 17.8141 120.55 20.7141 120.55ZM20.7141 129.1C19.0641 129.1 17.4641 129.55 15.9141 130.45C14.4141 131.3 13.1641 132.6 12.1641 134.35C11.2141 136.05 10.7391 138.125 10.7391 140.575C10.7391 142.975 11.2141 145.05 12.1641 146.8C13.1641 148.5 14.4141 149.8 15.9141 150.7C17.4641 151.55 19.0641 151.975 20.7141 151.975C22.3641 151.975 23.9391 151.55 25.4391 150.7C26.9891 149.8 28.2391 148.5 29.1891 146.8C30.1391 145.05 30.6141 142.975 30.6141 140.575C30.6141 138.175 30.1391 136.1 29.1891 134.35C28.2391 132.6 26.9891 131.3 25.4391 130.45C23.9391 129.55 22.3641 129.1 20.7141 129.1ZM70.6207 120.625C73.2707 120.625 75.6957 121.225 77.8957 122.425C80.1457 123.575 81.9457 125.425 83.2957 127.975C84.6957 130.475 85.3957 133.65 85.3957 137.5V160H75.5707V138.1C75.5707 132 73.1707 128.95 68.3707 128.95C66.5207 128.95 64.8457 129.425 63.3457 130.375C61.8457 131.325 60.6207 132.475 59.6707 133.825C58.7707 135.175 58.1457 136.45 57.7957 137.65V160H47.9707V121H57.7957V128.575C58.1457 127.625 58.8707 126.55 59.9707 125.35C61.0707 124.1 62.5207 123 64.3207 122.05C66.1707 121.1 68.2707 120.625 70.6207 120.625ZM111.374 120.55C114.324 120.55 117.274 121.35 120.224 122.95C123.224 124.5 125.699 126.8 127.649 129.85C129.649 132.9 130.649 136.5 130.649 140.65C130.649 141.65 130.574 142.75 130.424 143.95H101.924C102.374 146.45 103.599 148.425 105.599 149.875C107.599 151.325 109.799 152.05 112.199 152.05C113.849 152.05 115.324 151.825 116.624 151.375C117.924 150.925 119.224 150.225 120.524 149.275L126.299 154.675C124.549 156.575 122.474 158.025 120.074 159.025C117.674 160.025 115.049 160.525 112.199 160.525C109.099 160.525 105.974 159.775 102.824 158.275C99.6738 156.775 97.0488 154.525 94.9488 151.525C92.8488 148.525 91.7988 144.875 91.7988 140.575C91.7988 136.325 92.7988 132.7 94.7988 129.7C96.7988 126.65 99.2988 124.375 102.299 122.875C105.349 121.325 108.374 120.55 111.374 120.55ZM111.524 128.95C109.224 128.95 107.174 129.65 105.374 131.05C103.574 132.45 102.449 134.425 101.999 136.975H120.824C120.374 134.425 119.249 132.45 117.449 131.05C115.699 129.65 113.724 128.95 111.524 128.95ZM180.567 120.55C183.417 120.55 186.267 121.325 189.117 122.875C191.967 124.425 194.317 126.7 196.167 129.7C198.017 132.7 198.942 136.3 198.942 140.5C198.942 144.75 198.017 148.4 196.167 151.45C194.317 154.45 191.967 156.725 189.117 158.275C186.317 159.775 183.467 160.525 180.567 160.525C178.617 160.525 176.817 160.175 175.167 159.475C173.567 158.775 172.267 157.95 171.267 157C170.317 156 169.792 155.125 169.692 154.375V160H159.867V121V107.5H169.692V121V126.1C169.842 125.35 170.392 124.55 171.342 123.7C172.292 122.8 173.567 122.05 175.167 121.45C176.767 120.85 178.567 120.55 180.567 120.55ZM178.917 152.05C180.617 152.05 182.242 151.6 183.792 150.7C185.392 149.75 186.667 148.4 187.617 146.65C188.617 144.9 189.117 142.85 189.117 140.5C189.117 138.15 188.617 136.1 187.617 134.35C186.667 132.6 185.392 131.275 183.792 130.375C182.242 129.425 180.617 128.95 178.917 128.95C176.167 128.95 173.867 129.9 172.017 131.8C170.167 133.65 169.242 136.55 169.242 140.5C169.242 144.4 170.167 147.3 172.017 149.2C173.917 151.1 176.217 152.05 178.917 152.05ZM215.626 115.6H205.576V107.5H215.626V115.6ZM215.626 160H205.576V121H215.626V160ZM239.943 151.975C241.693 151.975 243.393 151.675 245.043 151.075V159.1C243.243 160 240.693 160.45 237.393 160.45C234.143 160.45 231.568 159.6 229.668 157.9C227.818 156.15 226.893 152.975 226.893 148.375V128.95H221.868V121H226.893V114.25H236.718V121H245.043V128.95H236.718V148.225C236.718 150.725 237.793 151.975 239.943 151.975ZM291.155 120.55C293.155 120.55 294.955 120.85 296.555 121.45C298.155 122.05 299.43 122.8 300.38 123.7C301.33 124.55 301.88 125.35 302.03 126.1V121H311.855V160H302.03V154.375C301.93 155.125 301.38 156 300.38 157C299.43 157.95 298.13 158.775 296.48 159.475C294.88 160.175 293.105 160.525 291.155 160.525C288.255 160.525 285.38 159.775 282.53 158.275C279.73 156.725 277.405 154.45 275.555 151.45C273.705 148.4 272.78 144.75 272.78 140.5C272.78 136.3 273.705 132.7 275.555 129.7C277.405 126.7 279.755 124.425 282.605 122.875C285.455 121.325 288.305 120.55 291.155 120.55ZM292.805 128.95C291.105 128.95 289.455 129.425 287.855 130.375C286.305 131.275 285.03 132.6 284.03 134.35C283.08 136.1 282.605 138.15 282.605 140.5C282.605 142.85 283.08 144.9 284.03 146.65C285.03 148.4 286.305 149.75 287.855 150.7C289.455 151.6 291.105 152.05 292.805 152.05C295.505 152.05 297.78 151.1 299.63 149.2C301.53 147.3 302.48 144.4 302.48 140.5C302.48 136.55 301.555 133.65 299.705 131.8C297.855 129.9 295.555 128.95 292.805 128.95ZM336.11 151.975C337.86 151.975 339.56 151.675 341.21 151.075V159.1C339.41 160 336.86 160.45 333.56 160.45C330.31 160.45 327.735 159.6 325.835 157.9C323.985 156.15 323.06 152.975 323.06 148.375V128.95H318.035V121H323.06V114.25H332.885V121H341.21V128.95H332.885V148.225C332.885 150.725 333.96 151.975 336.11 151.975ZM387.322 120.55C389.322 120.55 391.122 120.85 392.722 121.45C394.322 122.05 395.597 122.8 396.547 123.7C397.497 124.55 398.047 125.35 398.197 126.1V121H408.022V160H398.197V154.375C398.097 155.125 397.547 156 396.547 157C395.597 157.95 394.297 158.775 392.647 159.475C391.047 160.175 389.272 160.525 387.322 160.525C384.422 160.525 381.547 159.775 378.697 158.275C375.897 156.725 373.572 154.45 371.722 151.45C369.872 148.4 368.947 144.75 368.947 140.5C368.947 136.3 369.872 132.7 371.722 129.7C373.572 126.7 375.922 124.425 378.772 122.875C381.622 121.325 384.472 120.55 387.322 120.55ZM388.972 128.95C387.272 128.95 385.622 129.425 384.022 130.375C382.472 131.275 381.197 132.6 380.197 134.35C379.247 136.1 378.772 138.15 378.772 140.5C378.772 142.85 379.247 144.9 380.197 146.65C381.197 148.4 382.472 149.75 384.022 150.7C385.622 151.6 387.272 152.05 388.972 152.05C391.672 152.05 393.947 151.1 395.797 149.2C397.697 147.3 398.647 144.4 398.647 140.5C398.647 136.55 397.722 133.65 395.872 131.8C394.022 129.9 391.722 128.95 388.972 128.95ZM454.982 151.975C456.732 151.975 458.432 151.675 460.082 151.075V159.1C458.282 160 455.732 160.45 452.432 160.45C449.182 160.45 446.607 159.6 444.707 157.9C442.857 156.15 441.932 152.975 441.932 148.375V128.95H436.907V121H441.932V114.25H451.757V121H460.082V128.95H451.757V148.225C451.757 150.725 452.832 151.975 454.982 151.975ZM476.734 115.6H466.684V107.5H476.734V115.6ZM476.734 160H466.684V121H476.734V160ZM535.477 120.625C538.227 120.625 540.752 121.25 543.052 122.5C545.402 123.7 547.277 125.65 548.677 128.35C550.127 131.05 550.852 134.525 550.852 138.775V160H540.952V138.85C540.952 135.7 540.227 133.275 538.777 131.575C537.327 129.825 535.252 128.95 532.552 128.95C530.102 128.95 528.027 129.825 526.327 131.575C524.627 133.325 523.502 135.425 522.952 137.875V160H513.052V138.85C513.052 135.75 512.277 133.325 510.727 131.575C509.177 129.825 507.177 128.95 504.727 128.95C501.977 128.95 499.802 129.775 498.202 131.425C496.602 133.075 495.552 135.225 495.052 137.875L495.127 160H485.227V121H495.052V128.875C495.202 127.725 495.727 126.525 496.627 125.275C497.577 123.975 498.927 122.875 500.677 121.975C502.427 121.075 504.552 120.625 507.052 120.625C509.952 120.625 512.677 121.375 515.227 122.875C517.827 124.325 519.827 126.5 521.227 129.4C522.177 127.25 523.827 125.25 526.177 123.4C528.527 121.55 531.627 120.625 535.477 120.625ZM576.828 120.55C579.778 120.55 582.728 121.35 585.678 122.95C588.678 124.5 591.153 126.8 593.103 129.85C595.103 132.9 596.103 136.5 596.103 140.65C596.103 141.65 596.028 142.75 595.878 143.95H567.378C567.828 146.45 569.053 148.425 571.053 149.875C573.053 151.325 575.253 152.05 577.653 152.05C579.303 152.05 580.778 151.825 582.078 151.375C583.378 150.925 584.678 150.225 585.978 149.275L591.753 154.675C590.003 156.575 587.928 158.025 585.528 159.025C583.128 160.025 580.503 160.525 577.653 160.525C574.553 160.525 571.428 159.775 568.278 158.275C565.128 156.775 562.503 154.525 560.403 151.525C558.303 148.525 557.253 144.875 557.253 140.575C557.253 136.325 558.253 132.7 560.253 129.7C562.253 126.65 564.753 124.375 567.753 122.875C570.803 121.325 573.828 120.55 576.828 120.55ZM576.978 128.95C574.678 128.95 572.628 129.65 570.828 131.05C569.028 132.45 567.903 134.425 567.453 136.975H586.278C585.828 134.425 584.703 132.45 582.903 131.05C581.153 129.65 579.178 128.95 576.978 128.95Z" fill="url(#paint0_linear)"/>
<defs>
<linearGradient id="paint0_linear" x1="744" y1="195.001" x2="-185.5" y2="195.001" gradientUnits="userSpaceOnUse">
<stop stop-color="#FF9186"/>
<stop offset="1" stop-color="#FFC86D"/>
</linearGradient>
</defs>
</svg>
